<svg width="180" height="180" viewBox="0 0 180 180" fill="none" xmlns="http://www.w3.org/2000/svg">
<path d="M127.621 33.6142C143.008 38.746 166.105 38.3925 177.62 51.0889C180.871 54.6015 180.835 61.2837 177.245 64.4804C169.47 72.0574 157.771 74.9493 147.288 77.5409L147.073 77.5942C146.756 77.6724 146.434 77.7667 146.107 77.862C145.258 78.11 144.384 78.3653 143.529 78.3653C144.044 78.7435 144.596 79.074 145.178 79.3521C155.177 84.4826 164.931 90.4483 172.975 98.1002C173.874 98.7346 173.799 99.0165 172.975 99.3689C171.808 99.7662 170.637 100.16 169.465 100.555L169.453 100.559C159.385 103.949 149.186 107.384 140.382 113.183L134.763 116.778C133.981 117.216 133.375 117.885 133.04 118.681C132.79 120.088 133.533 121.362 134.239 122.571C134.354 122.768 134.467 122.963 134.576 123.156C134.646 123.282 134.718 123.409 134.791 123.539L134.796 123.547C136.252 126.132 138.15 129.498 135.512 131.931C134.37 132.994 133.084 133.894 131.795 134.796C130.518 135.689 129.239 136.584 128.095 137.64C114.598 149.451 102.247 162.51 93.18 177.674C92.8054 178.308 92.3557 178.943 91.9061 179.577C91.8487 179.701 91.7546 179.807 91.635 179.882C91.5155 179.957 91.3755 179.998 91.2318 180C90.7073 179.859 90.7074 179.366 90.7074 179.366C80.546 160.837 65.3982 145.01 48.0752 132.143C47.0322 131.433 46.3031 130.387 46.0268 129.205C45.7505 128.022 45.9462 126.785 46.5767 125.729C46.7146 125.508 46.8668 125.272 47.0271 125.024C48.2353 123.15 49.9036 120.563 49.3645 118.495C48.84 116.484 46.2174 114.943 44.2541 113.79C43.9327 113.601 43.6289 113.422 43.3549 113.254C33.4261 106.963 22.1005 103.37 10.8505 99.8019L10.8479 99.8011C10.3198 99.6336 9.79181 99.4661 9.26417 99.2984C9.1593 99.2655 9.04221 99.2403 8.92334 99.2147C8.53264 99.1306 8.12282 99.0424 8.06537 98.6641C7.99045 98.1707 8.58985 97.6773 8.96447 97.6773C10.889 96.311 12.7911 94.9331 14.6885 93.5586C21.3973 88.6986 28.0462 83.8821 35.4129 79.775L38.4848 78.0129C37.3961 77.7284 36.3051 77.4485 35.214 77.1685C25.263 74.615 15.3045 72.0596 6.9415 66.031C0.628742 61.3784 0.0825797 52.1733 6.9415 47.8467C11.2378 44.8105 16.0169 42.4318 21.1023 40.7986C27.1018 38.7277 33.2645 37.1017 39.5338 35.9353C44.0134 34.9208 48.5883 34.2827 53.1278 33.5561L53.1458 33.5562C53.146 33.5534 53.1463 33.5506 53.1465 33.5478C53.6698 31.0534 54.1348 28.548 54.5997 26.0427C55.581 20.7551 56.5621 15.4683 58.0915 10.2888C58.4918 9.10345 59.2461 8.0514 60.2644 7.25809C62.4985 5.52465 65.0329 4.16568 67.7568 3.24063C83.369 -2.15071 100.844 -0.263441 116.233 4.86171C118.206 5.36766 119.972 6.41614 121.307 7.87278C122.642 9.32942 123.484 11.1279 123.726 13.0376C124.883 19.9316 126.166 26.771 127.621 33.6142Z" fill="#9965F4"/>
</svg>
