<?xml version="1.0" encoding="utf-8"?>
<!-- Generator: Adobe Illustrator 21.0.2, SVG Export Plug-In . SVG Version: 6.00 Build 0)  -->
<svg version="1.1" id="Layer_1" xmlns="http://www.w3.org/2000/svg" xmlns:xlink="http://www.w3.org/1999/xlink" x="0px" y="0px"
	 viewBox="0 0 100 100" style="enable-background:new 0 0 100 100;" xml:space="preserve">
<path fill="#888888" d="M72,30H14c-5,0-9,4-9,9v36c0,5,4,9,9,9h58c5,0,9-4,9-9V39C81,34,77,30,72,30z M14,36h58c1.7,0,3,1.3,3,3v5H11v-5
	C11,37.3,12.3,36,14,36z M72,78H14c-1.7,0-3-1.3-3-3V48h64v27C75,76.7,73.7,78,72,78z M95,25v36c0,5-4,9-9,9c-1.7,0-3-1.3-3-3
	s1.3-3,3-3c1.7,0,3-1.3,3-3V25c0-1.7-1.3-3-3-3H28c-1.7,0-3,1.3-3,3c0,1.7-1.3,3-3,3s-3-1.3-3-3c0-5,4-9,9-9h58C91,16,95,20,95,25z
	 M13,40c0-1.1,0.9-2,2-2h4c1.1,0,2,0.9,2,2s-0.9,2-2,2h-4C13.9,42,13,41.1,13,40z M23,40c0-1.1,0.9-2,2-2h4c1.1,0,2,0.9,2,2
	s-0.9,2-2,2h-4C23.9,42,23,41.1,23,40z M33,40c0-1.1,0.9-2,2-2h4c1.1,0,2,0.9,2,2s-0.9,2-2,2h-4C33.9,42,33,41.1,33,40z"/>
</svg>
