<svg width="58" height="58" viewBox="0 0 58 58" fill="none" xmlns="http://www.w3.org/2000/svg">
<path fill-rule="evenodd" clip-rule="evenodd" d="M56.2995 54.6505C56.4705 54.8887 56.567 55.1722 56.577 55.4652C56.587 55.7582 56.51 56.0476 56.3557 56.2969C56.2014 56.5462 55.9767 56.7442 55.71 56.866C55.4433 56.9877 55.1465 57.0278 54.857 56.981H2.71945C2.43029 57.0274 2.13385 56.9873 1.86746 56.8656C1.60108 56.7439 1.37665 56.5461 1.22244 56.2971C1.06822 56.0481 0.991106 55.7591 1.00082 55.4664C1.01052 55.1737 1.10661 54.8904 1.27698 54.6522L27.6238 1.96194C28.2651 0.679353 29.3131 0.679353 29.9527 1.96194L56.2995 54.6487V54.6505Z" stroke="#00C4B4" stroke-width="2" stroke-linecap="round" stroke-linejoin="round"/>
<path d="M28.7881 40.0467V21.8003" stroke="#00C4B4" stroke-width="2" stroke-linecap="round" stroke-linejoin="round"/>
<path d="M28.7641 45.2607C28.679 45.2625 28.595 45.2812 28.5172 45.3158C28.4394 45.3503 28.3693 45.4001 28.3109 45.462C28.2525 45.524 28.207 45.5969 28.1771 45.6767C28.1472 45.7564 28.1334 45.8413 28.1367 45.9263C28.1434 46.0976 28.2161 46.2595 28.3395 46.3784C28.4629 46.4973 28.6275 46.5638 28.7988 46.5642H28.8127C28.8977 46.5624 28.9815 46.5437 29.0592 46.5093C29.1369 46.4748 29.207 46.4253 29.2653 46.3635C29.3237 46.3017 29.3692 46.2289 29.3992 46.1494C29.4293 46.0699 29.4432 45.9852 29.4401 45.9003C29.4331 45.731 29.3618 45.5708 29.2407 45.4522C29.1196 45.3337 28.9578 45.2659 28.7884 45.2625H28.7745" stroke="#00C4B4" stroke-width="2" stroke-linecap="round" stroke-linejoin="round"/>
</svg>
