<svg width="58" height="58" viewBox="0 0 58 58" fill="none" xmlns="http://www.w3.org/2000/svg">
<path fill-rule="evenodd" clip-rule="evenodd" d="M56.2995 54.6505C56.4705 54.8887 56.567 55.1722 56.577 55.4652C56.587 55.7582 56.51 56.0476 56.3557 56.2969C56.2014 56.5462 55.9767 56.7442 55.71 56.866C55.4433 56.9877 55.1465 57.0278 54.857 56.981H2.71945C2.43029 57.0274 2.13385 56.9873 1.86746 56.8656C1.60108 56.7439 1.37665 56.5461 1.22244 56.2971C1.06822 56.0481 0.99111 55.7591 1.00082 55.4664C1.01052 55.1737 1.10661 54.8904 1.27698 54.6522L27.6238 1.96194C28.2651 0.679354 29.3131 0.679354 29.9527 1.96194L56.2995 54.6487V54.6505Z" stroke="#9863F4" stroke-width="2" stroke-linecap="round" stroke-linejoin="round"/>
<path d="M28.7881 40.0466V21.8002" stroke="#9863F4" stroke-width="2" stroke-linecap="round" stroke-linejoin="round"/>
<path d="M28.7641 45.2606C28.679 45.2624 28.595 45.2811 28.5172 45.3157C28.4394 45.3502 28.3693 45.4 28.3109 45.4619C28.2525 45.5239 28.207 45.5968 28.1771 45.6766C28.1472 45.7563 28.1334 45.8412 28.1367 45.9262C28.1434 46.0975 28.2161 46.2594 28.3395 46.3783C28.4629 46.4972 28.6275 46.5637 28.7988 46.5641H28.8127C28.8977 46.5623 28.9815 46.5436 29.0592 46.5092C29.1369 46.4747 29.207 46.4252 29.2653 46.3634C29.3237 46.3016 29.3692 46.2288 29.3992 46.1493C29.4293 46.0698 29.4432 45.9851 29.4401 45.9002C29.4331 45.7309 29.3618 45.5707 29.2407 45.4521C29.1196 45.3336 28.9578 45.2658 28.7884 45.2624H28.7745" stroke="#9863F4" stroke-width="2" stroke-linecap="round" stroke-linejoin="round"/>
</svg>
