<svg width="63" height="77" fill="none" xmlns="http://www.w3.org/2000/svg"><path d="M50.65 32.941V16.965m0 .01a5.325 5.325 0 1110.65.001v40.387a18.172 18.172 0 01-5.325 12.866v0a18.169 18.169 0 01-12.855 5.325H32.76a21.302 21.302 0 01-17.726-9.483L2.076 46.634a5.47 5.47 0 010-6.06v0a5.465 5.465 0 017.963-1.232l8.659 6.926V11.651a5.325 5.325 0 1110.65 0V6.325a5.325 5.325 0 1110.651 0v5.326a5.325 5.325 0 1110.65 0v5.325zM29.349 11.64v21.301-21.3zm10.65 0v21.301-21.3z" stroke="#9863F4" stroke-width="1.855" stroke-linecap="round" stroke-linejoin="round"/></svg>