<svg width="400" height="400" viewBox="0 0 400 400" fill="none" xmlns="http://www.w3.org/2000/svg">
<path fill-rule="evenodd" clip-rule="evenodd" d="M378.8 1.6002C378.8 1.8402 377.2 2.0002 374.8 2.0002C372.4 2.0002 370.8 2.1602 370.8 2.4002C370.8 2.6332 369.467 2.8002 367.6 2.8002C365.733 2.8002 364.4 2.9672 364.4 3.2002C364.4 3.4222 363.333 3.6002 362 3.6002C360.667 3.6002 359.6 3.7782 359.6 4.0002C359.6 4.2292 358.4 4.4002 356.8 4.4002C355.2 4.4002 354 4.5712 354 4.8002C354 5.0202 353.1 5.2002 352 5.2002C350.9 5.2002 350 5.38019 350 5.60019C350 5.82019 349.1 6.0002 348 6.0002C346.9 6.0002 346 6.1802 346 6.4002C346 6.6202 345.1 6.8002 344 6.8002C342.9 6.8002 342 6.9802 342 7.2002C342 7.4202 341.201 7.60019 340.224 7.60019C339.247 7.60019 338.336 7.7802 338.2 8.0002C338.064 8.2202 337.243 8.4002 336.376 8.4002C335.509 8.4002 334.8 8.5802 334.8 8.8002C334.8 9.0202 334.08 9.2002 333.2 9.2002C332.32 9.2002 331.6 9.3802 331.6 9.6002C331.6 9.8202 330.88 10.0002 330 10.0002C329.12 10.0002 328.4 10.1802 328.4 10.4002C328.4 10.6202 327.86 10.8002 327.2 10.8002C326.54 10.8002 326 10.9802 326 11.2002C326 11.4202 325.28 11.6002 324.4 11.6002C323.52 11.6002 322.8 11.7802 322.8 12.0002C322.8 12.2202 322.26 12.4002 321.6 12.4002C320.94 12.4002 320.4 12.5802 320.4 12.8002C320.4 13.0202 319.86 13.2002 319.2 13.2002C318.54 13.2002 318 13.3802 318 13.6002C318 13.8202 317.28 14.0002 316.4 14.0002C315.52 14.0002 314.8 14.1802 314.8 14.4002C314.8 14.6202 314.26 14.8002 313.6 14.8002C312.94 14.8002 312.4 14.9802 312.4 15.2002C312.4 15.4202 311.86 15.6002 311.2 15.6002C310.54 15.6002 310 15.7802 310 16.0002C310 16.2202 309.46 16.4002 308.8 16.4002C308.14 16.4002 307.6 16.5802 307.6 16.8002C307.6 17.0202 307.06 17.2002 306.4 17.2002C305.74 17.2002 305.2 17.3802 305.2 17.6002C305.2 17.8202 304.84 18.0002 304.4 18.0002C303.96 18.0002 303.6 18.1802 303.6 18.4002C303.6 18.6202 303.06 18.8002 302.4 18.8002C301.74 18.8002 301.2 18.9802 301.2 19.2002C301.2 19.4202 300.761 19.6002 300.224 19.6002C299.687 19.6002 299.136 19.7802 299 20.0002C298.864 20.2202 298.403 20.4002 297.976 20.4002C297.549 20.4002 297.2 20.5802 297.2 20.8002C297.2 21.0202 296.66 21.2002 296 21.2002C295.34 21.2002 294.8 21.3802 294.8 21.6002C294.8 21.8202 294.44 22.0002 294 22.0002C293.56 22.0002 293.2 22.1802 293.2 22.4002C293.2 22.6202 292.84 22.8002 292.4 22.8002C291.96 22.8002 291.6 22.9802 291.6 23.2002C291.6 23.4202 291.24 23.6002 290.8 23.6002C290.36 23.6002 290 23.7802 290 24.0002C290 24.2202 289.46 24.4002 288.8 24.4002C288.14 24.4002 287.6 24.5802 287.6 24.8002C287.6 25.0202 287.24 25.2002 286.8 25.2002C286.36 25.2002 286 25.3802 286 25.6002C286 25.8202 285.64 26.0002 285.2 26.0002C284.76 26.0002 284.4 26.1802 284.4 26.4002C284.4 26.6202 284.04 26.8002 283.6 26.8002C283.16 26.8002 282.8 26.9802 282.8 27.2002C282.8 27.4202 282.44 27.6002 282 27.6002C281.56 27.6002 281.2 27.7802 281.2 28.0002C281.2 28.2202 280.84 28.4002 280.4 28.4002C279.96 28.4002 279.6 28.5802 279.6 28.8002C279.6 29.0202 279.24 29.2002 278.8 29.2002C278.36 29.2002 278 29.3802 278 29.6002C278 29.8202 277.64 30.0002 277.2 30.0002C276.76 30.0002 276.4 30.1802 276.4 30.4002C276.4 30.6202 276.04 30.8002 275.6 30.8002C275.16 30.8002 274.8 30.9802 274.8 31.2002C274.8 31.4202 274.44 31.6002 274 31.6002C273.56 31.6002 273.2 31.7802 273.2 32.0002C273.2 32.2202 272.84 32.4002 272.4 32.4002C271.96 32.4002 271.6 32.5802 271.6 32.8002C271.6 33.0202 271.24 33.2002 270.8 33.2002C270.36 33.2002 270 33.3802 270 33.6002C270 33.8202 269.64 34.0002 269.2 34.0002C268.76 34.0002 268.4 34.1802 268.4 34.4002C268.4 34.6202 268.164 34.8002 267.875 34.8002C267.587 34.8002 266.964 35.1602 266.492 35.6002C266.02 36.0402 265.356 36.4002 265.017 36.4002C264.678 36.4002 264.4 36.5802 264.4 36.8002C264.4 37.0202 264.122 37.2002 263.783 37.2002C263.444 37.2002 262.78 37.5602 262.308 38.0002C261.836 38.4402 261.213 38.8002 260.925 38.8002C260.636 38.8002 260.4 38.9802 260.4 39.2002C260.4 39.4202 260.08 39.6002 259.688 39.6002C259.297 39.6002 258.717 39.9602 258.4 40.4002C258.083 40.8402 257.585 41.2002 257.294 41.2002C257.002 41.2002 256.31 41.6532 255.756 42.2082C255.202 42.7622 254.552 43.0942 254.312 42.9462C254.051 42.7852 253.991 42.8622 254.162 43.1382C254.319 43.3922 254.244 43.6002 253.995 43.6002C253.746 43.6002 253.271 43.8722 252.939 44.2042C252.607 44.5362 252.142 44.6882 251.906 44.5422C251.651 44.3852 251.593 44.4642 251.762 44.7382C251.931 45.0122 251.793 45.2002 251.424 45.2002C251.081 45.2002 250.8 45.3802 250.8 45.6002C250.8 45.8202 250.557 46.0002 250.259 46.0002C249.962 46.0002 249.154 46.5402 248.463 47.2002C247.772 47.8602 247.052 48.4002 246.863 48.4002C246.674 48.4002 245.954 48.9402 245.263 49.6002C244.572 50.2602 243.812 50.8002 243.572 50.8002C243.333 50.8002 242.446 51.5202 241.6 52.4002C240.754 53.2802 239.857 54.0002 239.605 54.0002C239.354 54.0002 238.271 54.9002 237.2 56.0002C236.129 57.1002 235.055 58.0002 234.813 58.0002C234.572 58.0002 232.406 59.9802 230 62.4002C227.594 64.8202 225.478 66.8002 225.298 66.8002C224.912 66.8002 221.2 70.5062 221.2 70.8912C221.2 71.0362 218.14 74.2352 214.4 78.0002C210.66 81.7652 207.6 85.0252 207.6 85.2452C207.6 85.4642 206.556 86.6692 205.281 87.9222C204.005 89.1752 202.84 90.5152 202.693 90.9002C202.546 91.2852 202.149 91.6002 201.813 91.6002C201.476 91.6002 201.2 91.8692 201.2 92.1972C201.2 92.5262 199.22 94.7852 196.8 97.2182C194.38 99.6512 192.4 101.822 192.4 102.043C192.4 102.264 191.32 103.504 190 104.8C188.68 106.096 187.6 107.354 187.6 107.597C187.6 107.84 186.34 109.281 184.8 110.8C183.26 112.319 182 113.749 182 113.978C182 114.207 180.56 115.848 178.8 117.624C177.04 119.401 175.6 121.034 175.6 121.253C175.6 121.473 174.7 122.529 173.6 123.6C172.5 124.671 171.6 125.716 171.6 125.92C171.6 126.125 170.34 127.601 168.8 129.2C167.26 130.799 166 132.277 166 132.485C166 132.693 165.28 133.554 164.4 134.4C163.52 135.246 162.8 136.13 162.8 136.366C162.8 136.602 161.72 137.892 160.4 139.232C159.08 140.573 158 141.846 158 142.061C158 142.276 157.1 143.329 156 144.4C154.9 145.471 154 146.55 154 146.796C154 147.043 152.92 148.304 151.6 149.6C150.28 150.896 149.2 152.127 149.2 152.337C149.2 152.547 148.3 153.638 147.2 154.761C146.1 155.885 145.2 156.995 145.2 157.228C145.2 157.461 144.3 158.529 143.2 159.6C142.1 160.671 141.2 161.751 141.2 162C141.2 162.249 140.3 163.329 139.2 164.4C138.1 165.471 137.2 166.554 137.2 166.805C137.2 167.057 136.458 167.976 135.55 168.848C134.643 169.72 133.997 170.531 134.117 170.65C134.236 170.769 133.358 171.834 132.167 173.016C130.975 174.198 130 175.335 130 175.542C130 175.749 129.1 176.838 128 177.961C126.9 179.085 126 180.273 126 180.602C126 181.128 121.634 181.2 89.6 181.2C56.899 181.2 53.2 181.263 53.2 181.824C53.2 182.193 53.012 182.331 52.738 182.162C52.464 181.993 52.385 182.051 52.542 182.306C52.688 182.542 52.536 183.007 52.204 183.339C51.872 183.671 51.6 184.146 51.6 184.395C51.6 184.644 51.392 184.719 51.138 184.562C50.864 184.393 50.785 184.451 50.942 184.706C51.088 184.942 50.936 185.407 50.604 185.739C50.272 186.071 50 186.546 50 186.795C50 187.044 49.792 187.119 49.538 186.962C49.264 186.793 49.185 186.851 49.342 187.106C49.488 187.342 49.336 187.807 49.004 188.139C48.672 188.471 48.4 188.946 48.4 189.195C48.4 189.444 48.192 189.519 47.938 189.362C47.664 189.193 47.585 189.251 47.742 189.506C47.888 189.742 47.736 190.207 47.404 190.539C47.072 190.871 46.8 191.346 46.8 191.595C46.8 191.844 46.592 191.919 46.338 191.762C46.064 191.593 45.985 191.651 46.142 191.906C46.288 192.142 46.136 192.607 45.804 192.939C45.472 193.271 45.2 193.746 45.2 193.995C45.2 194.244 44.992 194.319 44.738 194.162C44.464 193.993 44.385 194.051 44.542 194.306C44.688 194.542 44.536 195.007 44.204 195.339C43.872 195.671 43.6 196.146 43.6 196.395C43.6 196.644 43.392 196.719 43.138 196.562C42.864 196.393 42.785 196.451 42.942 196.706C43.088 196.942 42.936 197.407 42.604 197.739C42.272 198.071 42 198.546 42 198.795C42 199.044 41.792 199.119 41.538 198.962C41.264 198.793 41.185 198.851 41.342 199.106C41.488 199.342 41.336 199.807 41.004 200.139C40.672 200.471 40.4 200.946 40.4 201.195C40.4 201.444 40.192 201.519 39.938 201.362C39.664 201.193 39.585 201.251 39.742 201.506C39.888 201.742 39.736 202.207 39.404 202.539C39.072 202.871 38.8 203.346 38.8 203.595C38.8 203.844 38.592 203.919 38.338 203.762C38.064 203.593 37.985 203.651 38.142 203.906C38.288 204.142 38.136 204.607 37.804 204.939C37.472 205.271 37.2 205.746 37.2 205.995C37.2 206.244 36.992 206.319 36.738 206.162C36.464 205.993 36.385 206.051 36.542 206.306C36.688 206.542 36.536 207.007 36.204 207.339C35.872 207.671 35.6 208.146 35.6 208.395C35.6 208.644 35.392 208.719 35.138 208.562C34.864 208.393 34.785 208.451 34.942 208.706C35.088 208.942 34.936 209.407 34.604 209.739C34.272 210.071 34 210.546 34 210.795C34 211.044 33.792 211.119 33.538 210.962C33.264 210.793 33.185 210.851 33.342 211.106C33.488 211.342 33.336 211.807 33.004 212.139C32.672 212.471 32.4 212.946 32.4 213.195C32.4 213.444 32.192 213.519 31.938 213.362C31.664 213.193 31.585 213.251 31.742 213.506C31.888 213.742 31.736 214.207 31.404 214.539C31.072 214.871 30.8 215.346 30.8 215.595C30.8 215.844 30.592 215.919 30.338 215.762C30.064 215.593 29.985 215.651 30.142 215.906C30.288 216.142 30.136 216.607 29.804 216.939C29.472 217.271 29.2 217.746 29.2 217.995C29.2 218.244 28.992 218.319 28.738 218.162C28.464 217.993 28.385 218.051 28.542 218.306C28.688 218.542 28.536 219.007 28.204 219.339C27.872 219.671 27.6 220.146 27.6 220.395C27.6 220.644 27.392 220.719 27.138 220.562C26.864 220.393 26.785 220.451 26.942 220.706C27.088 220.942 26.936 221.407 26.604 221.739C26.272 222.071 26 222.546 26 222.795C26 223.044 25.792 223.119 25.538 222.962C25.264 222.793 25.185 222.851 25.342 223.106C25.488 223.342 25.336 223.807 25.004 224.139C24.672 224.471 24.4 224.946 24.4 225.195C24.4 225.444 24.192 225.519 23.938 225.362C23.664 225.193 23.585 225.251 23.742 225.506C23.888 225.742 23.736 226.207 23.404 226.539C23.072 226.871 22.8 227.346 22.8 227.595C22.8 227.844 22.592 227.919 22.338 227.762C22.064 227.593 21.985 227.651 22.142 227.906C22.288 228.142 22.136 228.607 21.804 228.939C21.472 229.271 21.2 229.746 21.2 229.995C21.2 230.244 21.047 230.353 20.86 230.237C20.673 230.121 20.538 230.516 20.56 231.113C20.595 232.055 20.787 232.217 22 232.329C22.77 232.399 23.571 232.624 23.78 232.829C23.989 233.033 24.754 233.2 25.48 233.2C26.206 233.2 26.8 233.38 26.8 233.6C26.8 233.82 27.419 234 28.176 234C28.933 234 29.664 234.18 29.8 234.4C29.936 234.62 30.577 234.8 31.224 234.8C31.871 234.8 32.4 234.98 32.4 235.2C32.4 235.42 33.12 235.6 34 235.6C34.88 235.6 35.6 235.78 35.6 236C35.6 236.22 36.32 236.4 37.2 236.4C38.08 236.4 38.8 236.58 38.8 236.8C38.8 237.02 39.329 237.2 39.976 237.2C40.623 237.2 41.264 237.38 41.4 237.6C41.536 237.82 42.267 238 43.024 238C43.781 238 44.4 238.18 44.4 238.4C44.4 238.62 45.12 238.8 46 238.8C46.88 238.8 47.6 238.98 47.6 239.2C47.6 239.42 48.129 239.6 48.776 239.6C49.423 239.6 50.064 239.78 50.2 240C50.336 240.22 51.056 240.4 51.8 240.4C52.544 240.4 53.264 240.58 53.4 240.8C53.536 241.02 54.267 241.2 55.024 241.2C55.781 241.2 56.4 241.38 56.4 241.6C56.4 241.82 56.929 242 57.576 242C58.223 242 58.864 242.18 59 242.4C59.136 242.62 59.867 242.8 60.624 242.8C61.381 242.8 62 242.98 62 243.2C62 243.42 62.72 243.6 63.6 243.6C64.48 243.6 65.2 243.78 65.2 244C65.2 244.22 65.92 244.4 66.8 244.4C67.68 244.4 68.4 244.58 68.4 244.8C68.4 245.02 68.929 245.2 69.576 245.2C70.223 245.2 70.864 245.38 71 245.6C71.136 245.82 71.867 246 72.624 246C73.381 246 74 246.18 74 246.4C74 246.62 74.54 246.8 75.2 246.8C76.373 246.8 76.4 246.844 76.4 248.8C76.4 249.9 76.58 250.8 76.8 250.8C77.02 250.8 77.2 251.34 77.2 252C77.2 252.66 77.38 253.2 77.6 253.2C78.121 253.2 78.121 255.478 77.6 255.8C77.38 255.936 77.2 256.587 77.2 257.247C77.2 257.945 77.033 258.344 76.8 258.2C76.58 258.064 76.4 258.323 76.4 258.776C76.4 259.229 76.22 259.6 76 259.6C75.78 259.6 75.6 259.96 75.6 260.4C75.6 260.84 75.42 261.2 75.2 261.2C74.98 261.2 74.8 261.616 74.8 262.125C74.8 262.633 74.44 263.436 74 263.908C73.56 264.38 73.2 265.033 73.2 265.36C73.2 265.686 73.02 266.064 72.8 266.2C72.58 266.336 72.4 266.887 72.4 267.424C72.4 267.961 72.22 268.4 72 268.4C71.78 268.4 71.6 268.76 71.6 269.2C71.6 269.64 71.42 270 71.2 270C70.98 270 70.8 270.461 70.8 271.024C70.8 271.587 70.657 271.959 70.483 271.851C70.309 271.744 70.137 272.045 70.101 272.521C70.065 272.997 69.811 273.805 69.537 274.318C69.147 275.046 69.143 275.417 69.519 276.019C69.784 276.443 70 277.242 70 277.795C70 278.348 70.18 278.8 70.4 278.8C70.62 278.8 70.8 279.34 70.8 280C70.8 280.66 70.98 281.2 71.2 281.2C71.42 281.2 71.6 281.56 71.6 282C71.6 282.44 71.78 282.8 72 282.8C72.22 282.8 72.4 283.036 72.4 283.325C72.4 283.613 72.76 284.236 73.2 284.708C73.64 285.18 74 285.844 74 286.183C74 286.522 74.18 286.8 74.4 286.8C74.62 286.8 74.8 287.036 74.8 287.325C74.8 287.613 75.16 288.236 75.6 288.708C76.04 289.18 76.4 289.727 76.4 289.924C76.4 290.121 76.94 290.846 77.6 291.537C78.26 292.228 78.8 292.956 78.8 293.156C78.8 293.356 79.7 294.438 80.8 295.561C81.9 296.685 82.8 297.873 82.8 298.202C82.8 298.531 83.076 298.8 83.413 298.8C83.749 298.8 84.14 299.1 84.281 299.467C84.422 299.834 85.586 301.199 86.868 302.502C88.151 303.804 89.2 305.049 89.2 305.268C89.2 305.742 96.782 313.2 97.263 313.2C97.445 313.2 98.869 314.46 100.428 316C101.986 317.54 103.442 318.8 103.662 318.8C103.882 318.8 104.754 319.52 105.6 320.4C106.446 321.28 107.349 322 107.608 322C107.867 322 108.583 322.54 109.2 323.2C109.817 323.86 110.569 324.4 110.872 324.4C111.175 324.4 111.683 324.76 112 325.2C112.317 325.64 112.897 326 113.288 326C113.68 326 114 326.18 114 326.4C114 326.62 114.36 326.8 114.8 326.8C115.24 326.8 115.6 326.98 115.6 327.2C115.6 327.42 115.836 327.6 116.125 327.6C116.413 327.6 117.036 327.96 117.508 328.4C117.984 328.843 118.919 329.2 119.607 329.2C120.289 329.2 120.75 329.358 120.63 329.551C120.511 329.744 122.211 329.933 124.407 329.97C126.97 330.015 128.4 329.889 128.4 329.62C128.4 329.389 128.76 329.2 129.2 329.2C129.64 329.2 130 329.02 130 328.8C130 328.58 130.439 328.4 130.976 328.4C131.513 328.4 132.064 328.22 132.2 328C132.336 327.78 132.797 327.6 133.224 327.6C133.651 327.6 134 327.42 134 327.2C134 326.98 134.36 326.8 134.8 326.8C135.24 326.8 135.6 326.62 135.6 326.4C135.6 326.18 135.96 326 136.4 326C136.84 326 137.2 325.82 137.2 325.6C137.2 325.38 137.56 325.2 138 325.2C138.44 325.2 138.8 325.02 138.8 324.8C138.8 324.58 139.239 324.4 139.776 324.4C140.313 324.4 140.864 324.22 141 324C141.136 323.78 141.597 323.6 142.024 323.6C142.451 323.6 142.8 323.42 142.8 323.2C142.8 322.98 143.16 322.8 143.6 322.8C144.04 322.8 144.4 322.62 144.4 322.4C144.4 322.18 144.76 322 145.2 322C145.64 322 146 321.82 146 321.6C146 321.38 146.54 321.2 147.2 321.2C147.86 321.2 148.4 321.38 148.4 321.6C148.4 321.82 149.264 322 150.32 322C152.576 322 153.2 322.489 153.2 324.256C153.2 324.969 153.38 325.664 153.6 325.8C153.82 325.936 154 326.577 154 327.224C154 327.871 154.18 328.4 154.4 328.4C154.62 328.4 154.8 329.12 154.8 330C154.8 330.88 154.98 331.6 155.2 331.6C155.42 331.6 155.6 332.219 155.6 332.976C155.6 333.733 155.78 334.464 156 334.6C156.22 334.736 156.4 335.377 156.4 336.024C156.4 336.671 156.58 337.2 156.8 337.2C157.02 337.2 157.2 337.92 157.2 338.8C157.2 339.68 157.38 340.4 157.6 340.4C157.82 340.4 158 341.019 158 341.776C158 342.533 158.18 343.264 158.4 343.4C158.62 343.536 158.8 344.177 158.8 344.824C158.8 345.471 158.98 346 159.2 346C159.42 346 159.6 346.72 159.6 347.6C159.6 348.48 159.78 349.2 160 349.2C160.22 349.2 160.4 349.819 160.4 350.576C160.4 351.333 160.58 352.064 160.8 352.2C161.02 352.336 161.2 353.056 161.2 353.8C161.2 354.544 161.38 355.264 161.6 355.4C161.82 355.536 162 356.177 162 356.824C162 357.471 162.18 358 162.4 358C162.62 358 162.8 358.72 162.8 359.6C162.8 360.48 162.98 361.2 163.2 361.2C163.42 361.2 163.6 361.819 163.6 362.576C163.6 363.333 163.78 364.064 164 364.2C164.22 364.336 164.4 364.977 164.4 365.624C164.4 366.271 164.58 366.8 164.8 366.8C165.02 366.8 165.2 367.52 165.2 368.4C165.2 369.28 165.38 370 165.6 370C165.82 370 166 370.619 166 371.376C166 372.133 166.18 372.864 166.4 373C166.62 373.136 166.8 373.856 166.8 374.6C166.8 375.344 166.98 376.064 167.2 376.2C167.42 376.336 167.6 376.899 167.6 377.452C167.6 379.394 169.361 380.242 170.4 378.8C170.717 378.36 171.257 378 171.6 378C171.943 378 172.483 377.64 172.8 377.2C173.117 376.76 173.657 376.4 174 376.4C174.343 376.4 174.883 376.04 175.2 375.6C175.517 375.16 176.057 374.8 176.4 374.8C176.743 374.8 177.283 374.44 177.6 374C177.917 373.56 178.457 373.2 178.8 373.2C179.143 373.2 179.683 372.84 180 372.4C180.317 371.96 180.857 371.6 181.2 371.6C181.543 371.6 182.083 371.24 182.4 370.8C182.717 370.36 183.257 370 183.6 370C183.943 370 184.483 369.64 184.8 369.2C185.117 368.76 185.657 368.4 186 368.4C186.343 368.4 186.883 368.04 187.2 367.6C187.517 367.16 188.057 366.8 188.4 366.8C188.743 366.8 189.283 366.44 189.6 366C189.917 365.56 190.457 365.2 190.8 365.2C191.143 365.2 191.683 364.84 192 364.4C192.317 363.96 192.857 363.6 193.2 363.6C193.543 363.6 194.083 363.24 194.4 362.8C194.717 362.36 195.257 362 195.6 362C195.943 362 196.483 361.64 196.8 361.2C197.117 360.76 197.657 360.4 198 360.4C198.343 360.4 198.883 360.04 199.2 359.6C199.517 359.16 200.097 358.8 200.488 358.8C200.88 358.8 201.2 358.65 201.2 358.468C201.2 358.285 201.695 357.88 202.3 357.568C202.905 357.255 203.749 356.685 204.175 356.3C204.602 355.915 205.187 355.6 205.475 355.6C205.764 355.6 206 355.45 206 355.268C206 355.085 206.495 354.68 207.1 354.368C207.705 354.055 208.549 353.485 208.975 353.1C209.402 352.715 209.987 352.4 210.275 352.4C210.564 352.4 210.8 352.25 210.8 352.068C210.8 351.885 211.295 351.48 211.9 351.168C212.505 350.855 213.349 350.285 213.775 349.9C214.202 349.515 214.787 349.2 215.075 349.2C215.364 349.2 215.6 349.05 215.6 348.868C215.6 348.685 216.095 348.28 216.7 347.968C217.305 347.655 218.025 347.188 218.3 346.929C218.693 346.558 218.8 338.571 218.8 309.618V272.779L220.589 270.989C221.574 270.005 222.545 269.2 222.749 269.2C222.952 269.2 224.038 268.3 225.161 267.2C226.285 266.1 227.397 265.2 227.633 265.2C227.87 265.2 228.754 264.48 229.6 263.6C230.446 262.72 231.346 262 231.6 262C231.854 262 232.754 261.28 233.6 260.4C234.446 259.52 235.313 258.8 235.528 258.8C235.743 258.8 236.838 257.9 237.961 256.8C239.085 255.7 240.195 254.8 240.428 254.8C240.661 254.8 241.729 253.9 242.8 252.8C243.871 251.7 244.922 250.8 245.134 250.8C245.346 250.8 246.438 249.9 247.561 248.8C248.685 247.7 249.795 246.8 250.028 246.8C250.261 246.8 251.329 245.9 252.4 244.8C253.471 243.7 254.554 242.8 254.805 242.8C255.057 242.8 255.954 242.08 256.8 241.2C257.646 240.32 258.543 239.6 258.795 239.6C259.046 239.6 260.129 238.7 261.2 237.6C262.271 236.5 263.324 235.6 263.539 235.6C263.754 235.6 265.027 234.52 266.368 233.2C267.708 231.88 268.998 230.8 269.234 230.8C269.47 230.8 270.354 230.08 271.2 229.2C272.046 228.32 272.925 227.6 273.155 227.6C273.384 227.6 273.765 227.24 274 226.8C274.235 226.36 274.62 226 274.854 226C275.088 226 275.783 225.46 276.4 224.8C277.017 224.14 277.73 223.6 277.986 223.6C278.242 223.6 279.329 222.7 280.4 221.6C281.471 220.5 282.649 219.6 283.017 219.6C283.436 219.6 283.603 219.384 283.463 219.02C283.324 218.658 283.568 218.337 284.112 218.164C284.592 218.012 285.465 217.373 286.052 216.744C286.64 216.115 287.305 215.6 287.53 215.6C287.755 215.6 289.214 214.34 290.772 212.8C292.331 211.26 293.771 210 293.972 210C294.174 210 295.614 208.74 297.172 207.2C298.731 205.66 300.194 204.4 300.425 204.4C300.656 204.4 301.904 203.32 303.2 202C304.496 200.68 305.732 199.6 305.947 199.6C306.163 199.6 307.574 198.385 309.084 196.9C310.593 195.415 312.523 193.676 313.373 193.035C314.222 192.394 316.196 190.593 317.759 189.031C319.321 187.47 321.23 185.747 322 185.202C322.77 184.658 325.329 182.275 327.687 179.906C330.045 177.538 332.166 175.6 332.4 175.6C332.634 175.6 332.94 175.3 333.081 174.934C333.221 174.568 335.285 172.309 337.668 169.914C340.051 167.519 342 165.389 342 165.182C342 164.975 343.08 163.708 344.4 162.368C345.72 161.027 346.8 159.766 346.8 159.566C346.8 159.365 347.52 158.459 348.4 157.552C349.28 156.645 350 155.727 350 155.512C350 155.297 350.54 154.617 351.2 154C351.86 153.383 352.4 152.631 352.4 152.328C352.4 152.025 352.76 151.517 353.2 151.2C353.64 150.883 354 150.375 354 150.072C354 149.769 354.54 149.017 355.2 148.4C355.86 147.783 356.4 147.031 356.4 146.728C356.4 146.425 356.76 145.917 357.2 145.6C357.64 145.283 358 144.791 358 144.508C358 144.225 358.54 143.428 359.2 142.737C359.86 142.046 360.4 141.321 360.4 141.124C360.4 140.927 360.76 140.38 361.2 139.908C361.64 139.436 362 138.813 362 138.525C362 138.236 362.18 138 362.4 138C362.62 138 362.8 137.68 362.8 137.288C362.8 136.897 363.16 136.317 363.6 136C364.04 135.683 364.4 135.186 364.4 134.895C364.4 134.604 364.76 133.98 365.2 133.508C365.64 133.036 366 132.413 366 132.125C366 131.836 366.18 131.6 366.4 131.6C366.62 131.6 366.8 131.24 366.8 130.8C366.8 130.36 366.98 130 367.2 130C367.42 130 367.6 129.764 367.6 129.475C367.6 129.187 367.96 128.564 368.4 128.092C368.84 127.62 369.2 126.956 369.2 126.617C369.2 126.278 369.38 126 369.6 126C369.82 126 370 125.64 370 125.2C370 124.76 370.18 124.4 370.4 124.4C370.62 124.4 370.8 124.08 370.8 123.688C370.8 123.297 371.16 122.717 371.6 122.4C372.04 122.083 372.4 121.503 372.4 121.112C372.4 120.72 372.58 120.4 372.8 120.4C373.02 120.4 373.2 120.04 373.2 119.6C373.2 119.16 373.38 118.8 373.6 118.8C373.82 118.8 374 118.26 374 117.6C374 116.94 374.18 116.4 374.4 116.4C374.62 116.4 374.8 116.04 374.8 115.6C374.8 115.16 374.98 114.8 375.2 114.8C375.42 114.8 375.6 114.44 375.6 114C375.6 113.56 375.78 113.2 376 113.2C376.22 113.2 376.4 112.786 376.4 112.28C376.4 111.226 377.253 109.208 377.7 109.203C377.865 109.201 378 108.84 378 108.4C378 107.96 378.18 107.6 378.4 107.6C378.62 107.6 378.8 107.06 378.8 106.4C378.8 105.74 378.98 105.2 379.2 105.2C379.42 105.2 379.6 104.761 379.6 104.224C379.6 103.687 379.78 103.136 380 103C380.22 102.864 380.4 102.403 380.4 101.976C380.4 101.549 380.58 101.2 380.8 101.2C381.02 101.2 381.2 100.66 381.2 100C381.2 99.3402 381.38 98.8002 381.6 98.8002C381.82 98.8002 382 98.3612 382 97.8242C382 97.2872 382.18 96.7362 382.4 96.6002C382.62 96.4642 382.8 96.0032 382.8 95.5762C382.8 95.1492 382.98 94.8002 383.2 94.8002C383.42 94.8002 383.6 94.2602 383.6 93.6002C383.6 92.9402 383.78 92.4002 384 92.4002C384.22 92.4002 384.4 91.8602 384.4 91.2002C384.4 90.5402 384.58 90.0002 384.8 90.0002C385.02 90.0002 385.2 89.4712 385.2 88.8242C385.2 88.1772 385.38 87.5362 385.6 87.4002C385.82 87.2642 386 86.5332 386 85.7762C386 85.0192 386.18 84.4002 386.4 84.4002C386.62 84.4002 386.8 83.8602 386.8 83.2002C386.8 82.5402 386.98 82.0002 387.2 82.0002C387.42 82.0002 387.6 81.4712 387.6 80.8242C387.6 80.1772 387.78 79.5362 388 79.4002C388.22 79.2642 388.4 78.5332 388.4 77.7762C388.4 77.0192 388.58 76.4002 388.8 76.4002C389.02 76.4002 389.2 75.6802 389.2 74.8002C389.2 73.9202 389.38 73.2002 389.6 73.2002C389.82 73.2002 390 72.4802 390 71.6002C390 70.7202 390.18 70.0002 390.4 70.0002C390.62 70.0002 390.8 69.2802 390.8 68.4002C390.8 67.5202 390.98 66.8002 391.2 66.8002C391.42 66.8002 391.6 65.9002 391.6 64.8002C391.6 63.7002 391.78 62.8002 392 62.8002C392.22 62.8002 392.4 62.0802 392.4 61.2002C392.4 60.3202 392.58 59.6002 392.8 59.6002C393.02 59.6002 393.2 58.7002 393.2 57.6002C393.2 56.5002 393.38 55.6002 393.6 55.6002C393.82 55.6002 394 54.6212 394 53.4242C394 52.2272 394.18 51.1362 394.4 51.0002C394.62 50.8642 394.8 49.8742 394.8 48.8002C394.8 47.7262 394.98 46.7362 395.2 46.6002C395.42 46.4642 395.6 45.3842 395.6 44.2002C395.6 43.0162 395.78 41.9362 396 41.8002C396.22 41.6642 396.4 40.4042 396.4 39.0002C396.4 37.5962 396.58 36.3362 396.8 36.2002C397.02 36.0642 397.2 34.4332 397.2 32.5762C397.2 30.5922 397.365 29.2002 397.6 29.2002C397.842 29.2002 398 27.4672 398 24.8002C398 22.1332 398.158 20.4002 398.4 20.4002C398.656 20.4002 398.8 16.9332 398.8 10.8002V1.2002H388.8C382.4 1.2002 378.8 1.3442 378.8 1.6002ZM289 84.8002C289.136 85.0202 289.957 85.2002 290.824 85.2002C291.691 85.2002 292.4 85.3802 292.4 85.6002C292.4 85.8202 292.76 86.0002 293.2 86.0002C293.64 86.0002 294 86.1802 294 86.4002C294 86.6202 294.54 86.8002 295.2 86.8002C295.86 86.8002 296.4 86.9802 296.4 87.2002C296.4 87.4202 296.76 87.6002 297.2 87.6002C297.64 87.6002 298 87.7802 298 88.0002C298 88.2202 298.236 88.4002 298.525 88.4002C298.813 88.4002 299.436 88.7602 299.908 89.2002C300.38 89.6402 300.968 90.0002 301.215 90.0002C301.461 90.0002 302.354 90.7202 303.2 91.6002C304.046 92.4802 305.021 93.2002 305.369 93.2002C305.716 93.2002 306 93.4522 306 93.7592C306 94.0672 306.9 95.2382 308 96.3612C309.1 97.4852 310 98.6732 310 99.0022C310 99.3312 310.18 99.6002 310.4 99.6002C310.62 99.6002 310.8 99.8362 310.8 100.125C310.8 100.413 311.16 101.036 311.6 101.508C312.04 101.98 312.4 102.644 312.4 102.983C312.4 103.322 312.58 103.6 312.8 103.6C313.02 103.6 313.2 104.14 313.2 104.8C313.2 105.46 313.38 106 313.6 106C313.82 106 314 106.54 314 107.2C314 107.86 314.18 108.4 314.4 108.4C314.62 108.4 314.8 109.3 314.8 110.4C314.8 111.5 314.98 112.4 315.2 112.4C315.44 112.4 315.6 113.992 315.6 116.376C315.6 118.596 315.423 120.462 315.2 120.6C314.98 120.736 314.8 121.647 314.8 122.624C314.8 123.601 314.62 124.4 314.4 124.4C314.18 124.4 314 124.94 314 125.6C314 126.26 313.82 126.8 313.6 126.8C313.38 126.8 313.2 127.34 313.2 128C313.2 128.66 313.02 129.2 312.8 129.2C312.58 129.2 312.4 129.478 312.4 129.817C312.4 130.156 312.04 130.82 311.6 131.292C311.16 131.764 310.8 132.387 310.8 132.675C310.8 132.964 310.62 133.2 310.4 133.2C310.18 133.2 310 133.476 310 133.813C310 134.151 309.386 135.04 308.636 135.791C307.886 136.541 306.947 137.705 306.55 138.377C306.153 139.05 305.582 139.6 305.282 139.6C304.983 139.6 304.046 140.32 303.2 141.2C302.354 142.08 301.418 142.8 301.12 142.8C300.821 142.8 300.317 143.16 300 143.6C299.683 144.04 299.103 144.4 298.712 144.4C298.32 144.4 298 144.58 298 144.8C298 145.02 297.64 145.2 297.2 145.2C296.76 145.2 296.4 145.38 296.4 145.6C296.4 145.82 295.86 146 295.2 146C294.54 146 294 146.18 294 146.4C294 146.62 293.64 146.8 293.2 146.8C292.76 146.8 292.4 146.98 292.4 147.2C292.4 147.42 291.5 147.6 290.4 147.6C289.3 147.6 288.4 147.78 288.4 148C288.4 148.244 286.533 148.4 283.6 148.4C280.667 148.4 278.8 148.244 278.8 148C278.8 147.78 277.9 147.6 276.8 147.6C275.7 147.6 274.8 147.42 274.8 147.2C274.8 146.98 274.26 146.8 273.6 146.8C272.94 146.8 272.4 146.62 272.4 146.4C272.4 146.18 272.04 146 271.6 146C271.16 146 270.8 145.82 270.8 145.6C270.8 145.38 270.44 145.2 270 145.2C269.56 145.2 269.2 145.02 269.2 144.8C269.2 144.58 268.88 144.4 268.488 144.4C268.097 144.4 267.517 144.04 267.2 143.6C266.883 143.16 266.391 142.8 266.108 142.8C265.825 142.8 265.028 142.26 264.337 141.6C263.646 140.94 262.907 140.4 262.695 140.4C262.223 140.4 259.6 137.587 259.6 137.082C259.6 136.884 259.06 136.217 258.4 135.6C257.74 134.983 257.2 134.231 257.2 133.928C257.2 133.625 256.84 133.117 256.4 132.8C255.96 132.483 255.6 131.903 255.6 131.512C255.6 131.12 255.42 130.8 255.2 130.8C254.98 130.8 254.8 130.44 254.8 130C254.8 129.56 254.62 129.2 254.4 129.2C254.18 129.2 254 128.761 254 128.224C254 127.687 253.82 127.136 253.6 127C253.38 126.864 253.2 126.324 253.2 125.8C253.2 125.276 253.02 124.736 252.8 124.6C252.58 124.464 252.4 123.564 252.4 122.6C252.4 121.636 252.22 120.736 252 120.6C251.773 120.46 251.6 118.463 251.6 115.976C251.6 113.325 251.758 111.6 252 111.6C252.22 111.6 252.4 110.599 252.4 109.376C252.4 107.996 252.552 107.247 252.8 107.4C253.033 107.544 253.2 107.137 253.2 106.424C253.2 105.751 253.38 105.2 253.6 105.2C253.82 105.2 254 104.84 254 104.4C254 103.96 254.18 103.6 254.4 103.6C254.62 103.6 254.8 103.24 254.8 102.8C254.8 102.36 254.98 102 255.2 102C255.42 102 255.6 101.64 255.6 101.2C255.6 100.76 255.78 100.4 256 100.4C256.22 100.4 256.4 100.166 256.4 99.8792C256.4 99.5932 257.297 98.3782 258.394 97.1792C259.49 95.9812 260.39 94.8412 260.394 94.6472C260.401 94.2192 262.462 92.4012 262.94 92.4002C263.126 92.4002 263.783 91.8602 264.4 91.2002C265.017 90.5402 265.769 90.0002 266.072 90.0002C266.375 90.0002 266.883 89.6402 267.2 89.2002C267.517 88.7602 268.097 88.4002 268.488 88.4002C268.88 88.4002 269.2 88.2202 269.2 88.0002C269.2 87.7802 269.56 87.6002 270 87.6002C270.44 87.6002 270.8 87.4202 270.8 87.2002C270.8 86.9802 271.34 86.8002 272 86.8002C272.66 86.8002 273.2 86.6202 273.2 86.4002C273.2 86.1802 273.56 86.0002 274 86.0002C274.44 86.0002 274.8 85.8202 274.8 85.6002C274.8 85.3802 275.7 85.2002 276.8 85.2002C277.9 85.2002 278.8 85.0202 278.8 84.8002C278.8 84.5552 280.725 84.4002 283.776 84.4002C286.663 84.4002 288.857 84.5682 289 84.8002ZM48.4 280C48.4 280.22 48.146 280.4 47.835 280.4C47.524 280.4 46.173 281.48 44.832 282.8C43.492 284.12 42.227 285.2 42.021 285.2C41.48 285.2 30.8 295.881 30.8 296.423C30.8 296.674 30.26 297.383 29.6 298C28.94 298.617 28.4 299.369 28.4 299.672C28.4 299.975 28.04 300.483 27.6 300.8C27.16 301.117 26.8 301.573 26.8 301.813C26.8 302.053 26.485 302.598 26.1 303.025C25.715 303.451 25.145 304.295 24.832 304.9C24.52 305.505 24.115 306 23.932 306C23.75 306 23.6 306.32 23.6 306.712C23.6 307.103 23.24 307.683 22.8 308C22.36 308.317 22 308.897 22 309.288C22 309.68 21.82 310 21.6 310C21.38 310 21.2 310.416 21.2 310.925C21.2 311.433 20.84 312.236 20.4 312.708C19.96 313.18 19.6 313.844 19.6 314.183C19.6 314.522 19.42 314.8 19.2 314.8C18.98 314.8 18.8 315.16 18.8 315.6C18.8 316.04 18.62 316.4 18.4 316.4C18.18 316.4 18 316.76 18 317.2C18 317.64 17.82 318 17.6 318C17.38 318 17.2 318.36 17.2 318.8C17.2 319.24 17.02 319.6 16.8 319.6C16.58 319.6 16.4 320.14 16.4 320.8C16.4 321.46 16.22 322 16 322C15.78 322 15.6 322.36 15.6 322.8C15.6 323.24 15.42 323.6 15.2 323.6C14.98 323.6 14.8 324.14 14.8 324.8C14.8 325.46 14.62 326 14.4 326C14.18 326 14 326.36 14 326.8C14 327.24 13.82 327.6 13.6 327.6C13.38 327.6 13.2 328.14 13.2 328.8C13.2 329.46 13.02 330 12.8 330C12.58 330 12.4 330.54 12.4 331.2C12.4 331.86 12.22 332.4 12 332.4C11.78 332.4 11.6 332.94 11.6 333.6C11.6 334.26 11.42 334.8 11.2 334.8C10.98 334.8 10.8 335.52 10.8 336.4C10.8 337.28 10.62 338 10.4 338C10.18 338 10 338.72 10 339.6C10 340.48 9.82001 341.2 9.60001 341.2C9.38001 341.2 9.20001 341.92 9.20001 342.8C9.20001 343.68 9.02001 344.4 8.80001 344.4C8.58001 344.4 8.40001 345.12 8.40001 346C8.40001 346.88 8.22001 347.6 8.00001 347.6C7.78001 347.6 7.60001 348.601 7.60001 349.824C7.60001 351.047 7.45001 351.955 7.26801 351.842C7.08501 351.729 6.89501 352.663 6.84501 353.918C6.79601 355.173 6.58501 356.26 6.37801 356.333C6.17001 356.407 6.00001 357.532 6.00001 358.833C6.00001 360.135 5.84301 361.2 5.65101 361.2C5.45901 361.2 5.27201 362.775 5.23501 364.7C5.19801 366.625 4.99501 368.26 4.78401 368.333C4.56401 368.41 4.40001 370.838 4.40001 374.033C4.40001 377.478 4.24801 379.6 4.00001 379.6C3.74901 379.6 3.60001 382.133 3.60001 386.4C3.60001 390.667 3.74901 393.2 4.00001 393.2C4.22001 393.2 4.40001 393.74 4.40001 394.4V395.6H17.2C25.467 395.6 30 395.458 30 395.2C30 394.963 31.467 394.8 33.6 394.8C35.733 394.8 37.2 394.637 37.2 394.4C37.2 394.171 38.4 394 40 394C41.6 394 42.8 393.829 42.8 393.6C42.8 393.378 43.867 393.2 45.2 393.2C46.533 393.2 47.6 393.022 47.6 392.8C47.6 392.58 48.5 392.4 49.6 392.4C50.7 392.4 51.6 392.22 51.6 392C51.6 391.78 52.5 391.6 53.6 391.6C54.7 391.6 55.6 391.42 55.6 391.2C55.6 390.98 56.32 390.8 57.2 390.8C58.08 390.8 58.8 390.62 58.8 390.4C58.8 390.18 59.34 390 60 390C60.66 390 61.2 389.82 61.2 389.6C61.2 389.38 61.92 389.2 62.8 389.2C63.68 389.2 64.4 389.02 64.4 388.8C64.4 388.58 64.94 388.4 65.6 388.4C66.26 388.4 66.8 388.22 66.8 388C66.8 387.78 67.34 387.6 68 387.6C68.66 387.6 69.2 387.42 69.2 387.2C69.2 386.98 69.74 386.8 70.4 386.8C71.06 386.8 71.6 386.62 71.6 386.4C71.6 386.18 72.14 386 72.8 386C73.46 386 74 385.82 74 385.6C74 385.38 74.54 385.2 75.2 385.2C75.86 385.2 76.4 385.02 76.4 384.8C76.4 384.58 76.76 384.4 77.2 384.4C77.64 384.4 78 384.22 78 384C78 383.78 78.439 383.6 78.976 383.6C79.513 383.6 80.064 383.42 80.2 383.2C80.336 382.98 80.797 382.8 81.224 382.8C81.651 382.8 82 382.62 82 382.4C82 382.18 82.36 382 82.8 382C83.24 382 83.6 381.82 83.6 381.6C83.6 381.38 83.96 381.2 84.4 381.2C84.84 381.2 85.2 381.02 85.2 380.8C85.2 380.58 85.56 380.4 86 380.4C86.44 380.4 86.8 380.22 86.8 380C86.8 379.78 87.16 379.6 87.6 379.6C88.04 379.6 88.4 379.42 88.4 379.2C88.4 378.98 88.76 378.8 89.2 378.8C89.64 378.8 90 378.62 90 378.4C90 378.18 90.236 378 90.525 378C90.813 378 91.436 377.64 91.908 377.2C92.38 376.76 93.004 376.4 93.295 376.4C93.586 376.4 94.083 376.04 94.4 375.6C94.717 375.16 95.257 374.8 95.6 374.8C95.943 374.8 96.483 374.44 96.8 374C97.117 373.56 97.609 373.2 97.892 373.2C98.175 373.2 98.972 372.66 99.663 372C100.354 371.34 101.09 370.8 101.299 370.8C101.508 370.8 102.183 370.26 102.8 369.6C103.417 368.94 104.126 368.4 104.377 368.4C104.919 368.4 115.6 357.72 115.6 357.178C115.6 356.972 116.5 355.885 117.6 354.761C118.7 353.638 119.6 352.467 119.6 352.159C119.6 351.852 119.78 351.6 120 351.6C120.22 351.6 120.4 351.24 120.4 350.8C120.4 350.342 120.133 350 119.776 350C119.407 350 119.269 349.812 119.438 349.538C119.607 349.264 119.549 349.185 119.294 349.342C119.058 349.488 118.593 349.336 118.261 349.004C117.929 348.672 117.414 348.4 117.117 348.4C116.82 348.4 116.317 348.04 116 347.6C115.683 347.16 115.103 346.8 114.712 346.8C114.32 346.8 114 346.62 114 346.4C114 346.18 113.64 346 113.2 346C112.76 346 112.4 345.82 112.4 345.6C112.4 344.71 110.284 345.239 109.2 346.4C108.583 347.06 107.873 347.6 107.621 347.6C107.37 347.6 106.71 348.053 106.156 348.608C105.602 349.162 104.952 349.494 104.712 349.346C104.451 349.185 104.391 349.262 104.562 349.538C104.731 349.812 104.593 350 104.224 350C103.881 350 103.6 350.18 103.6 350.4C103.6 350.62 103.24 350.8 102.8 350.8C102.36 350.8 102 350.98 102 351.2C102 351.42 101.64 351.6 101.2 351.6C100.76 351.6 100.4 351.78 100.4 352C100.4 352.22 100.04 352.4 99.6 352.4C99.16 352.4 98.8 352.58 98.8 352.8C98.8 353.02 98.564 353.2 98.275 353.2C97.987 353.2 97.364 353.56 96.892 354C96.42 354.44 95.756 354.8 95.417 354.8C95.078 354.8 94.8 354.98 94.8 355.2C94.8 355.42 94.44 355.6 94 355.6C93.56 355.6 93.2 355.78 93.2 356C93.2 356.22 92.66 356.4 92 356.4C91.34 356.4 90.8 356.58 90.8 356.8C90.8 357.02 90.44 357.2 90 357.2C89.56 357.2 89.2 357.38 89.2 357.6C89.2 357.82 88.66 358 88 358C87.34 358 86.8 358.18 86.8 358.4C86.8 358.62 86.26 358.8 85.6 358.8C84.94 358.8 84.4 358.98 84.4 359.2C84.4 359.42 83.961 359.6 83.424 359.6C82.887 359.6 82.336 359.78 82.2 360C82.064 360.22 81.423 360.4 80.776 360.4C80.129 360.4 79.6 360.58 79.6 360.8C79.6 361.02 79.06 361.2 78.4 361.2C77.74 361.2 77.2 361.38 77.2 361.6C77.2 361.82 76.48 362 75.6 362C74.72 362 74 362.18 74 362.4C74 362.62 73.28 362.8 72.4 362.8C71.52 362.8 70.8 362.98 70.8 363.2C70.8 363.42 69.911 363.6 68.824 363.6C67.737 363.6 66.736 363.78 66.6 364C66.464 364.22 65.373 364.4 64.176 364.4C62.979 364.4 62 364.58 62 364.8C62 365.029 60.8 365.2 59.2 365.2C57.6 365.2 56.4 365.371 56.4 365.6C56.4 365.842 54.667 366 52 366C49.333 366 47.6 366.158 47.6 366.4C47.6 366.652 44.933 366.8 40.4 366.8H33.2V360C33.2 355.733 33.349 353.2 33.6 353.2C33.842 353.2 34 351.467 34 348.8C34 346.133 34.158 344.4 34.4 344.4C34.631 344.4 34.8 343.141 34.8 341.424C34.8 339.787 34.98 338.336 35.2 338.2C35.42 338.064 35.6 337.074 35.6 336C35.6 334.926 35.78 333.936 36 333.8C36.22 333.664 36.4 332.753 36.4 331.776C36.4 330.799 36.58 330 36.8 330C37.02 330 37.2 329.291 37.2 328.424C37.2 327.557 37.38 326.736 37.6 326.6C37.82 326.464 38 325.733 38 324.976C38 324.219 38.18 323.6 38.4 323.6C38.62 323.6 38.8 322.88 38.8 322C38.8 321.12 38.98 320.4 39.2 320.4C39.42 320.4 39.6 319.86 39.6 319.2C39.6 318.54 39.78 318 40 318C40.22 318 40.4 317.46 40.4 316.8C40.4 316.14 40.58 315.6 40.8 315.6C41.02 315.6 41.2 315.06 41.2 314.4C41.2 313.74 41.38 313.2 41.6 313.2C41.82 313.2 42 312.851 42 312.424C42 311.997 42.18 311.536 42.4 311.4C42.62 311.264 42.8 310.713 42.8 310.176C42.8 309.639 42.98 309.2 43.2 309.2C43.42 309.2 43.6 308.84 43.6 308.4C43.6 307.96 43.78 307.6 44 307.6C44.22 307.6 44.4 307.366 44.4 307.08C44.4 306.344 45.341 304.407 45.7 304.403C45.865 304.401 46 304.04 46 303.6C46 303.16 46.18 302.8 46.4 302.8C46.62 302.8 46.8 302.44 46.8 302C46.8 301.56 46.98 301.2 47.2 301.2C47.42 301.2 47.6 300.84 47.6 300.4C47.6 299.96 47.78 299.6 48 299.6C48.22 299.6 48.4 299.322 48.4 298.983C48.4 298.644 48.76 297.98 49.2 297.508C49.64 297.036 50 296.413 50 296.125C50 295.836 50.18 295.6 50.4 295.6C50.62 295.6 50.8 295.357 50.8 295.059C50.8 294.762 51.34 293.954 52 293.263C52.66 292.572 53.2 291.775 53.2 291.492C53.2 291.209 53.56 290.717 54 290.4C54.824 289.806 55.139 287.6 54.4 287.6C54.18 287.6 54 287.24 54 286.8C54 286.36 53.82 286 53.6 286C53.38 286 53.2 285.722 53.2 285.383C53.2 285.044 52.84 284.38 52.4 283.908C51.96 283.436 51.6 282.813 51.6 282.525C51.6 282.236 51.42 282 51.2 282C50.98 282 50.8 281.717 50.8 281.371C50.8 281.026 50.543 280.486 50.229 280.171C49.573 279.516 48.4 279.406 48.4 280Z" fill="#00C4B4"/>
</svg>
