<svg width="63" height="77" viewBox="0 0 63 77" fill="none" xmlns="http://www.w3.org/2000/svg">
<path d="M50.65 32.941V16.965V32.941ZM50.65 16.975C50.6501 15.5627 51.2113 14.2084 52.21 13.2098C52.7045 12.7154 53.2916 12.3232 53.9377 12.0557C54.5838 11.7881 55.2762 11.6504 55.9755 11.6505C56.6748 11.6506 57.3672 11.7884 58.0133 12.056C58.6593 12.3237 59.2463 12.716 59.7407 13.2105C60.2351 13.705 60.6273 14.2921 60.8949 14.9382C61.1624 15.5843 61.3001 16.2767 61.3 16.976V57.363C61.3018 59.7523 60.8325 62.1186 59.9187 64.3263C59.005 66.534 57.6649 68.5398 55.975 70.229C54.2872 71.9177 52.2832 73.2572 50.0775 74.1709C47.8717 75.0846 45.5075 75.5546 43.12 75.554H32.76C29.2531 75.5546 25.8002 74.6893 22.708 73.0351C19.6158 71.3808 16.9798 68.9887 15.034 66.071L2.07601 46.634C1.47876 45.7363 1.16013 44.6822 1.16013 43.604C1.16013 42.5258 1.47876 41.4717 2.07601 40.574V40.574C2.49655 39.9437 3.04358 39.4077 3.68235 39.0001C4.32112 38.5925 5.03767 38.3222 5.7865 38.2063C6.53532 38.0905 7.30006 38.1316 8.03214 38.3271C8.76422 38.5226 9.44764 38.8682 10.039 39.342L18.698 46.268V11.651C18.698 10.9517 18.8357 10.2593 19.1033 9.61322C19.371 8.96716 19.7632 8.38014 20.2577 7.88567C20.7521 7.3912 21.3392 6.99896 21.9852 6.73135C22.6313 6.46375 23.3237 6.32601 24.023 6.32601C24.7223 6.32601 25.4147 6.46375 26.0608 6.73135C26.7069 6.99896 27.2939 7.3912 27.7883 7.88567C28.2828 8.38014 28.6751 8.96716 28.9427 9.61322C29.2103 10.2593 29.348 10.9517 29.348 11.651V6.32501C29.348 4.9126 29.9091 3.55804 30.9078 2.55931C31.9065 1.56059 33.2611 0.999512 34.6735 0.999512C36.0859 0.999512 37.4405 1.56059 38.4392 2.55931C39.4379 3.55804 39.999 4.9126 39.999 6.32501V11.651C39.999 10.9517 40.1367 10.2593 40.4044 9.61322C40.672 8.96716 41.0642 8.38014 41.5587 7.88567C42.0531 7.3912 42.6402 6.99896 43.2862 6.73135C43.9323 6.46375 44.6247 6.32601 45.324 6.32601C46.0233 6.32601 46.7157 6.46375 47.3618 6.73135C48.0079 6.99896 48.5949 7.3912 49.0894 7.88567C49.5838 8.38014 49.9761 8.96716 50.2437 9.61322C50.5113 10.2593 50.649 10.9517 50.649 11.651V16.976L50.65 16.975ZM29.349 11.64V32.941V11.641V11.64ZM39.999 11.64V32.941V11.641V11.64Z" stroke="#00C4B4" stroke-width="1.855" stroke-linecap="round" stroke-linejoin="round"/>
</svg>
