<svg width="66" height="66" viewBox="0 0 66 66" fill="none" xmlns="http://www.w3.org/2000/svg">
<path d="M11.9155 37.6439L33.0511 16.5102C34.4663 15.2134 36.139 14.2295 37.96 13.6228C39.7811 13.0161 41.7097 12.8002 43.6198 12.9892L53.0136 22.383C53.201 24.2929 52.9842 26.2209 52.3772 28.0415C51.7702 29.8621 50.7867 31.5345 49.4907 32.9498L28.3551 54.0835" stroke="#00C4B4" stroke-width="2" stroke-linecap="round" stroke-linejoin="round"/>
<path d="M43.6196 12.9872L50.6636 5.94134C53.2465 3.35837 63.5803 0.0704463 64.7552 1.24538C65.9283 2.41843 62.6403 12.7503 60.0574 15.3351L53.0134 22.381" stroke="#00C4B4" stroke-width="2" stroke-linecap="round" stroke-linejoin="round"/>
<path fill-rule="evenodd" clip-rule="evenodd" d="M36.5738 36.4708C38.5176 34.527 38.9236 29.425 37.7487 28.252C36.5738 27.077 31.4736 27.4812 29.528 29.425L13.3233 45.6297C12.9497 46.0034 12.7397 46.5102 12.7397 47.0386C12.7397 47.5671 12.9497 48.0739 13.3233 48.4476L17.5531 52.6736C17.9267 53.0467 18.4331 53.2562 18.9611 53.2562C19.4891 53.2562 19.9955 53.0467 20.3691 52.6736L36.5738 36.469V36.4708Z" stroke="#00C4B4" stroke-width="2" stroke-linecap="round" stroke-linejoin="round"/>
<path d="M23.6572 25.9018C21.3092 23.5538 13.457 22.0142 9.56746 25.9018L1.58358 33.8876C1.20992 34.2613 1 34.7681 1 35.2966C1 35.825 1.20992 36.3318 1.58358 36.7055L5.80957 40.9315C5.99464 41.1168 6.21442 41.2638 6.45634 41.3641C6.69827 41.4644 6.95759 41.516 7.21948 41.516C7.48138 41.516 7.7407 41.4644 7.98262 41.3641C8.22455 41.2638 8.44433 41.1168 8.6294 40.9315L11.9154 37.6436" stroke="#00C4B4" stroke-width="2" stroke-linecap="round" stroke-linejoin="round"/>
<path d="M40.0966 42.3398C42.4446 44.6897 43.9861 52.5439 40.0966 56.4315L32.1109 64.4172C31.7372 64.7909 31.2304 65.0008 30.7019 65.0008C30.1734 65.0008 29.6666 64.7909 29.2929 64.4172L25.0669 60.1894C24.8816 60.0043 24.7346 59.7845 24.6343 59.5426C24.534 59.3007 24.4824 59.0413 24.4824 58.7794C24.4824 58.5176 24.534 58.2582 24.6343 58.0163C24.7346 57.7744 24.8816 57.5546 25.0669 57.3695L28.3549 54.0835" stroke="#00C4B4" stroke-width="2" stroke-linecap="round" stroke-linejoin="round"/>
</svg>
