<svg width="16" height="16" viewBox="0 0 16 16" fill="none" xmlns="http://www.w3.org/2000/svg">
<path fill-rule="evenodd" clip-rule="evenodd" d="M13.9 1C14.1917 1 14.4715 1.11589 14.6778 1.32218C14.8841 1.52847 15 1.80826 15 2.1V13.9C15 14.1917 14.8841 14.4715 14.6778 14.6778C14.4715 14.8841 14.1917 15 13.9 15H2.1C1.80826 15 1.52847 14.8841 1.32218 14.6778C1.11589 14.4715 1 14.1917 1 13.9V2.1C1 1.80826 1.11589 1.52847 1.32218 1.32218C1.52847 1.11589 1.80826 1 2.1 1H13.9ZM13.5 2.5H2.5V13.5H13.5V2.5ZM10.75 9C10.9489 9 11.1397 9.07902 11.2803 9.21967C11.421 9.36032 11.5 9.55109 11.5 9.75C11.5 9.94891 11.421 10.1397 11.2803 10.2803C11.1397 10.421 10.9489 10.5 10.75 10.5H5.25C5.05109 10.5 4.86032 10.421 4.71967 10.2803C4.57902 10.1397 4.5 9.94891 4.5 9.75C4.5 9.55109 4.57902 9.36032 4.71967 9.21967C4.86032 9.07902 5.05109 9 5.25 9H10.75ZM10.75 5.5C10.9489 5.5 11.1397 5.57902 11.2803 5.71967C11.421 5.86032 11.5 6.05109 11.5 6.25C11.5 6.44891 11.421 6.63968 11.2803 6.78033C11.1397 6.92098 10.9489 7 10.75 7H5.25C5.05109 7 4.86032 6.92098 4.71967 6.78033C4.57902 6.63968 4.5 6.44891 4.5 6.25C4.5 6.05109 4.57902 5.86032 4.71967 5.71967C4.86032 5.57902 5.05109 5.5 5.25 5.5H10.75Z" fill="#00C4B4"/>
</svg>
