<svg width="66" height="66" viewBox="0 0 66 66" fill="none" xmlns="http://www.w3.org/2000/svg">
<path fill-rule="evenodd" clip-rule="evenodd" d="M1 33C1 15.328 15.328 1 33 1C50.672 1 65 15.328 65 33C65 38.115 63.2275 43.6499 61.0931 47.9382C62.0244 52.5372 62.9557 57.1361 63.8869 61.7351C64.0932 62.754 63.4345 63.7472 62.4156 63.9535C62.1581 64.0057 61.8926 64.0033 61.6361 63.9467C57.1784 62.9623 52.7207 61.9778 48.263 60.9934C43.9781 63.1235 38.1095 65 33 65C15.328 65 1 50.672 1 33Z" stroke="#00C4B4" stroke-width="2" stroke-linecap="round" stroke-linejoin="round"/>
<path d="M33.9409 49.0001C34.9805 49.0001 35.8233 48.1573 35.8233 47.1177C35.8233 46.0781 34.9805 45.2354 33.9409 45.2354C32.9014 45.2354 32.0586 46.0781 32.0586 47.1177C32.0586 48.1573 32.9014 49.0001 33.9409 49.0001Z" stroke="#00C4B4"/>
<path d="M33.9409 49.0001C34.9805 49.0001 35.8233 48.1573 35.8233 47.1177C35.8233 46.0781 34.9805 45.2354 33.9409 45.2354C32.9014 45.2354 32.0586 46.0781 32.0586 47.1177C32.0586 48.1573 32.9014 49.0001 33.9409 49.0001Z" stroke="#00C4B4"/>
<path d="M33.894 39.4432C33.8583 38.2696 34.0702 37.2927 34.5295 36.5125C35.2185 35.3422 35.8531 34.7747 37.0772 33.7092C38.4148 32.5426 42.7537 30.0409 42.917 26.3077C43.0991 22.1194 40.1869 18.4875 35.2695 17.9917C30.6096 17.5309 24.7146 20.2115 24.5293 25.8662" stroke="#00C4B4" stroke-width="2" stroke-linecap="round" stroke-linejoin="round"/>
</svg>
