<svg width="66" height="41" viewBox="0 0 66 41" fill="none" xmlns="http://www.w3.org/2000/svg">
<path d="M35.1333 1H9.53333C4.8205 1 1 4.8205 1 9.53333V31.2545C1 35.9674 4.8205 39.7879 9.53333 39.7879H35.1333C39.8462 39.7879 43.6667 35.9674 43.6667 31.2545V9.53333C43.6667 4.8205 39.8462 1 35.1333 1Z" stroke="#00C4B4" stroke-width="2" stroke-linecap="round" stroke-linejoin="round"/>
<path d="M51.4243 28.904L61.7264 33.7448C62.4284 34.0745 63.2604 34.0396 63.9276 33.6517C64.5947 33.2638 65.0001 32.5792 65.0001 31.8422V8.94379C65.0001 8.20682 64.5947 7.52222 63.9276 7.13434C63.595 6.94332 63.2213 6.83529 62.8381 6.81943C62.4549 6.80356 62.0736 6.88031 61.7264 7.04319L51.4243 11.8859" stroke="#00C4B4" stroke-width="2" stroke-linecap="round" stroke-linejoin="round"/>
</svg>
