<svg width="337" height="100" viewBox="0 0 337 100" fill="none" xmlns="http://www.w3.org/2000/svg">
<g clip-path="url(#clip0_14131_797)">
<path fill-rule="evenodd" clip-rule="evenodd" d="M51.1329 0C62.4815 0.00473562 73.507 3.77287 82.4767 10.7123C91.4465 17.6517 97.8523 27.3692 100.687 38.3377C103.523 49.3062 102.627 60.904 98.1399 71.3089C93.6534 81.7138 85.8306 90.3359 75.9009 95.8204C76.6122 81.3581 76.4401 64.136 68.1 58.3076C68.0521 58.0856 68.029 57.859 68.0311 57.632C70.4629 56.0329 72.4598 53.8572 73.8431 51.2995C75.2265 48.7417 75.9532 45.8816 75.9583 42.9749V41.7611C75.9536 37.1524 74.1322 32.7306 70.8877 29.4515C73.2246 26.5698 74.5648 23.0108 74.7078 19.3061C73.2442 20.7373 71.6758 22.0578 70.0158 23.2566C67.7947 24.8607 65.3967 26.2055 62.8688 27.2644C51.0182 32.1424 37.8484 29.5546 27.4089 19.3061C27.5551 23.117 28.9677 26.7709 31.4241 29.692C28.3203 32.947 26.5873 37.2674 26.5829 41.7611V42.9749C26.5892 45.9206 27.3361 48.8176 28.7551 51.4004C30.1742 53.9832 32.22 56.1691 34.7051 57.7579C34.7051 58.048 34.6821 58.3457 34.6362 58.6511L34.5559 58.7541C25.2292 65.8422 25.7455 86.4766 36.2308 99.9771C24.5047 96.3988 14.4545 88.7387 7.90789 78.3898C1.36129 68.0408 -1.24692 55.6904 0.557545 43.5843C2.36201 31.4783 8.45932 20.4206 17.7407 12.4223C27.022 4.42386 38.871 0.0159161 51.1329 0V0Z" fill="#01A299"/>
<path d="M314.116 47.5209C312.243 47.5191 310.391 47.9092 308.679 48.666C305.379 50.0765 302.758 52.7129 301.371 56.0174C300.655 57.7096 300.286 59.528 300.286 61.365C300.286 63.202 300.655 65.0203 301.371 66.7125C302.057 68.3531 303.055 69.8461 304.308 71.1096C305.564 72.362 307.047 73.3645 308.679 74.0639C310.39 74.7947 312.232 75.1715 314.093 75.1715C315.955 75.1715 317.797 74.7947 319.508 74.0639C321.158 73.3342 322.65 72.292 323.902 70.9951C325.159 69.7475 326.171 68.2754 326.885 66.6552C327.604 64.9698 327.974 63.1568 327.974 61.3249C327.974 59.493 327.604 57.6799 326.885 55.9945C325.471 52.6905 322.844 50.0518 319.543 48.6202C317.845 47.8667 316.008 47.4767 314.151 47.4751L314.116 47.5209ZM336.165 61.2619C336.219 64.1604 335.675 67.039 334.566 69.7182C333.456 72.3975 331.806 74.82 329.718 76.835C326.633 79.9156 322.702 82.0137 318.422 82.8638C314.141 83.7139 309.705 83.2778 305.673 81.6107C301.642 79.9436 298.196 77.1205 295.772 73.4983C293.348 69.8762 292.055 65.6178 292.056 61.2619C292.077 56.9157 293.387 52.6731 295.819 49.0685C298.252 45.4638 301.699 42.6584 305.726 41.0055C309.753 39.3526 314.18 38.9261 318.45 39.7799C322.719 40.6337 326.64 42.7295 329.718 45.8033C331.782 47.8325 333.416 50.2545 334.525 52.9257C335.617 55.6053 336.174 58.4721 336.165 61.365V61.2619ZM281.524 70.8119C282.07 70.797 282.612 70.8948 283.118 71.099C283.623 71.3033 284.081 71.6097 284.462 71.9989C284.844 72.3881 285.14 72.8518 285.333 73.3609C285.527 73.8699 285.613 74.4134 285.585 74.9571C285.587 75.5226 285.473 76.0825 285.25 76.6024C285.028 77.1223 284.7 77.5911 284.289 77.9801C280.081 81.6169 274.649 83.5268 269.087 83.3249C263.524 83.1231 258.245 80.8245 254.313 76.8923C252.23 74.8736 250.583 72.4503 249.474 69.7719C248.365 67.0935 247.818 64.2168 247.866 61.3192C247.863 58.4281 248.431 55.5649 249.538 52.8933C250.645 50.2218 252.269 47.7944 254.317 45.7501C256.365 43.7058 258.797 42.0848 261.473 40.9798C264.15 39.8749 267.018 39.3077 269.915 39.3107C275.219 39.2125 280.363 41.1232 284.312 44.6582C284.764 45.0358 285.125 45.5094 285.369 46.0444C285.613 46.5794 285.734 47.1622 285.723 47.7499C285.737 48.2936 285.643 48.8347 285.446 49.3418C285.249 49.849 284.953 50.312 284.576 50.7043C284.189 51.0867 283.728 51.3857 283.221 51.5827C282.714 51.7796 282.171 51.8704 281.628 51.8493C280.654 51.8588 279.708 51.5265 278.955 50.9104C277.702 49.8303 276.28 48.9637 274.744 48.3454C273.211 47.7584 271.58 47.4632 269.938 47.4751C268.081 47.482 266.245 47.8718 264.546 48.6202C262.903 49.3021 261.404 50.289 260.129 51.5287C258.834 52.8067 257.805 54.3286 257.103 56.0063C256.401 57.6839 256.04 59.4839 256.04 61.302C256.04 63.1201 256.401 64.9201 257.103 66.5977C257.805 68.2753 258.834 69.7973 260.129 71.0753C261.401 72.3273 262.9 73.326 264.546 74.0181C267.793 75.3806 271.436 75.4665 274.744 74.2586C276.273 73.6656 277.683 72.8047 278.909 71.7165C279.664 71.1523 280.581 70.8471 281.524 70.8462V70.8119ZM231.266 79.1481V43.433C231.251 42.8926 231.345 42.3548 231.542 41.8513C231.739 41.3477 232.035 40.8888 232.413 40.5016C233.184 39.7401 234.225 39.3129 235.31 39.3129C236.394 39.3129 237.435 39.7401 238.206 40.5016C238.986 41.2803 239.431 42.332 239.445 43.433V79.2053C239.433 80.3068 238.988 81.3595 238.206 82.1368C237.827 82.5179 237.375 82.8204 236.878 83.0269C236.381 83.2333 235.848 83.3396 235.31 83.3396C234.771 83.3396 234.238 83.2333 233.741 83.0269C233.244 82.8204 232.792 82.5179 232.413 82.1368C232.034 81.7499 231.738 81.291 231.541 80.7874C231.344 80.2838 231.25 79.7458 231.266 79.2053V79.1481ZM240.202 27.024C240.202 27.9797 239.918 28.914 239.386 29.7086C238.855 30.5033 238.098 31.1226 237.214 31.4884C236.329 31.8541 235.356 31.9498 234.417 31.7634C233.478 31.5769 232.615 31.1167 231.938 30.4409C231.261 29.7651 230.8 28.904 230.613 27.9667C230.426 27.0293 230.522 26.0577 230.889 25.1747C231.255 24.2918 231.875 23.5371 232.672 23.0061C233.468 22.4751 234.404 22.1917 235.361 22.1917C236.645 22.1917 237.877 22.7008 238.784 23.607C239.692 24.5133 240.202 25.7424 240.202 27.024ZM186.927 44.1773C190.783 40.962 195.668 39.2351 200.693 39.3107C205.051 39.3354 209.306 40.6292 212.938 43.0335C216.569 45.4378 219.418 48.848 221.136 52.8456C222.228 55.5364 222.778 58.4159 222.754 61.3192C222.807 64.2187 222.262 67.0981 221.15 69.7776C220.039 72.4572 218.386 74.8791 216.295 76.8923C214.246 78.9378 211.814 80.5605 209.137 81.6675C206.46 82.7746 203.591 83.3444 200.693 83.3444C197.795 83.3444 194.926 82.7746 192.249 81.6675C189.572 80.5605 187.14 78.9378 185.091 76.8923C183.008 74.8757 181.362 72.4545 180.253 69.778C179.144 67.1015 178.596 64.2265 178.644 61.3306V24.5277C178.625 23.9852 178.717 23.4445 178.916 22.9393C179.115 22.434 179.416 21.975 179.8 21.5906C180.184 21.2062 180.643 20.9047 181.149 20.7047C181.654 20.5048 182.196 20.4107 182.739 20.4283C183.28 20.4166 183.818 20.5118 184.322 20.7083C184.826 20.9048 185.286 21.1988 185.676 21.5734C186.059 21.9596 186.358 22.42 186.555 22.9262C186.752 23.4323 186.844 23.9735 186.823 24.5162V44.1773H186.927ZM200.762 75.0945C202.62 75.096 204.457 74.7058 206.154 73.9494C207.772 73.2446 209.243 72.2424 210.49 70.9951C211.735 69.7313 212.735 68.2482 213.438 66.6209C214.15 64.9335 214.516 63.1213 214.516 61.2905C214.516 59.4598 214.15 57.6475 213.438 55.9602C212.025 52.6561 209.398 50.0175 206.096 48.5858C204.381 47.8605 202.538 47.4868 200.676 47.4868C198.813 47.4868 196.97 47.8605 195.255 48.5858C191.956 49.9937 189.338 52.6314 187.959 55.9373C187.243 57.6295 186.874 59.4478 186.874 61.2848C186.874 63.1218 187.243 64.9402 187.959 66.6323C189.328 69.9451 191.949 72.5862 195.255 73.9838C196.97 74.7448 198.827 75.135 200.704 75.1288L200.762 75.0945ZM150.297 47.5209C148.42 47.5202 146.564 47.9102 144.847 48.666C143.217 49.3724 141.734 50.3785 140.477 51.6318C139.251 52.884 138.274 54.3566 137.597 55.9716C136.881 57.6638 136.512 59.4822 136.512 61.3192C136.512 63.1562 136.881 64.9745 137.597 66.6667C138.278 68.3073 139.272 69.8006 140.522 71.0638C141.781 72.3136 143.264 73.3158 144.893 74.0181C146.606 74.7505 148.45 75.1282 150.314 75.1282C152.177 75.1282 154.021 74.7505 155.734 74.0181C159.038 72.5997 161.664 69.9616 163.065 66.6552C163.784 64.9698 164.155 63.1568 164.155 61.3249C164.155 59.493 163.784 57.6799 163.065 55.9945C161.66 52.6886 159.035 50.0483 155.734 48.6202C154.036 47.869 152.2 47.479 150.342 47.4751L150.297 47.5209ZM172.334 61.2619C172.39 64.1607 171.847 67.0399 170.737 69.7194C169.628 72.399 167.977 74.8213 165.887 76.835C162.803 79.9173 158.873 82.0169 154.593 82.8679C150.313 83.7189 145.876 83.283 141.844 81.6154C137.813 79.9479 134.368 77.1237 131.945 73.5004C129.523 69.8772 128.232 65.6179 128.236 61.2619C128.26 56.9181 129.57 52.6783 132.002 49.0761C134.434 45.4739 137.879 42.6702 141.904 41.0178C145.929 39.3653 150.353 38.938 154.621 39.7895C158.888 40.641 162.808 42.7334 165.887 45.8033C167.954 47.8295 169.589 50.2522 170.694 52.9257C171.78 55.5911 172.337 58.4417 172.334 61.3192V61.2619Z" fill="#28303A"/>
</g>
<defs>
<clipPath id="clip0_14131_797">
<rect width="336.232" height="100" fill="white"/>
</clipPath>
</defs>
</svg>
