<svg width="232" height="69" viewBox="0 0 232 69" fill="none" xmlns="http://www.w3.org/2000/svg">
<path fill-rule="evenodd" clip-rule="evenodd" d="M35.2817 0C43.1123 0.00326758 50.7198 2.60328 56.9089 7.39149C63.0981 12.1797 67.5181 18.8847 69.4743 26.453C71.4306 34.0212 70.8123 42.0238 67.7166 49.2031C64.6208 56.3825 59.2231 62.3318 52.3716 66.1161C52.8624 56.1371 52.7437 44.2539 46.989 40.2322C46.9559 40.0791 46.94 39.9227 46.9415 39.7661C48.6194 38.6627 49.9972 37.1615 50.9518 35.3966C51.9063 33.6318 52.4077 31.6583 52.4112 29.6527V28.8152C52.408 25.6351 51.1512 22.5841 48.9125 20.3215C50.525 18.3332 51.4497 15.8774 51.5484 13.3212C50.5385 14.3087 49.4563 15.2199 48.3109 16.0471C46.7783 17.1539 45.1237 18.0818 43.3794 18.8124C35.2026 22.1783 26.1154 20.3926 18.9121 13.3212C19.013 15.9507 19.9877 18.4719 21.6826 20.4875C19.541 22.7335 18.3453 25.7145 18.3422 28.8152V29.6527C18.3465 31.6852 18.8619 33.6841 19.841 35.4663C20.8202 37.2484 22.2318 38.7567 23.9465 39.853C23.9465 40.0531 23.9307 40.2586 23.899 40.4693L23.8436 40.5404C17.4082 45.4311 17.7644 59.6688 24.9993 68.9842C16.9082 66.5152 9.9736 61.2297 5.45644 54.0889C0.93929 46.9482 -0.860377 38.4264 0.384706 30.0732C1.62979 21.72 5.83693 14.0902 12.2411 8.57135C18.6452 3.05246 26.821 0.0109821 35.2817 0V0Z" fill="#00B1A4"/>
<path d="M216.74 32.7894C215.448 32.7882 214.17 33.0573 212.988 33.5795C210.711 34.5528 208.903 36.3718 207.946 38.652C207.452 39.8196 207.197 41.0743 207.197 42.3418C207.197 43.6093 207.452 44.864 207.946 46.0316C208.42 47.1636 209.108 48.1938 209.972 49.0656C210.839 49.9297 211.863 50.6215 212.988 51.1041C214.169 51.6083 215.44 51.8683 216.724 51.8683C218.009 51.8683 219.28 51.6083 220.461 51.1041C221.599 50.6006 222.628 49.8815 223.492 48.9866C224.36 48.1258 225.058 47.11 225.55 45.9921C226.047 44.8291 226.302 43.5782 226.302 42.3141C226.302 41.0501 226.047 39.7991 225.55 38.6362C224.575 36.3564 222.762 34.5357 220.484 33.5479C219.313 33.028 218.046 32.7589 216.764 32.7578L216.74 32.7894ZM231.954 42.2707C231.991 44.2707 231.616 46.2569 230.85 48.1055C230.085 49.9542 228.946 51.6258 227.506 53.0161C225.377 55.1418 222.664 56.5894 219.711 57.176C216.758 57.7625 213.697 57.4616 210.915 56.3114C208.133 55.1611 205.755 53.2131 204.083 50.7138C202.41 48.2145 201.518 45.2763 201.518 42.2707C201.533 39.2718 202.437 36.3444 204.115 33.8572C205.794 31.37 208.172 29.4343 210.951 28.2937C213.73 27.1532 216.784 26.859 219.73 27.4481C222.676 28.0372 225.382 29.4833 227.506 31.6042C228.929 33.0044 230.057 34.6756 230.822 36.5187C231.576 38.3677 231.96 40.3457 231.954 42.3418V42.2707ZM194.252 48.8602C194.628 48.8499 195.002 48.9174 195.351 49.0583C195.7 49.1993 196.016 49.4106 196.279 49.6792C196.542 49.9478 196.747 50.2677 196.88 50.619C197.014 50.9702 197.073 51.3452 197.054 51.7204C197.055 52.1106 196.977 52.4969 196.823 52.8556C196.669 53.2143 196.443 53.5378 196.16 53.8062C193.256 56.3156 189.508 57.6334 185.67 57.4942C181.832 57.3549 178.189 55.7689 175.476 53.0556C174.039 51.6627 172.902 49.9907 172.137 48.1426C171.372 46.2945 170.994 44.3096 171.027 42.3102C171.025 40.3154 171.417 38.3397 172.181 36.4964C172.945 34.653 174.066 32.9781 175.479 31.5675C176.892 30.157 178.57 29.0385 180.417 28.2761C182.263 27.5136 184.243 27.1223 186.241 27.1243C189.901 27.0566 193.45 28.375 196.175 30.8141C196.487 31.0747 196.736 31.4015 196.904 31.7706C197.073 32.1398 197.156 32.5419 197.149 32.9474C197.159 33.3226 197.094 33.6959 196.958 34.0458C196.822 34.3958 196.618 34.7153 196.357 34.9859C196.091 35.2498 195.773 35.4561 195.423 35.592C195.073 35.7279 194.698 35.7906 194.323 35.776C193.651 35.7826 192.998 35.5532 192.479 35.1281C191.614 34.3829 190.633 33.7849 189.574 33.3583C188.515 32.9532 187.39 32.7496 186.257 32.7578C184.976 32.7626 183.709 33.0315 182.537 33.5479C181.403 34.0184 180.369 34.6994 179.489 35.5548C178.595 36.4366 177.886 37.4867 177.401 38.6443C176.917 39.8019 176.667 41.0439 176.667 42.2983C176.667 43.5528 176.917 44.7948 177.401 45.9524C177.886 47.11 178.595 48.1601 179.489 49.0419C180.367 49.9058 181.401 50.5949 182.537 51.0725C184.777 52.0126 187.291 52.0719 189.574 51.2384C190.629 50.8292 191.602 50.2352 192.447 49.4844C192.968 49.0951 193.601 48.8844 194.252 48.8839V48.8602ZM159.573 54.6122V29.9687C159.563 29.5959 159.628 29.2248 159.764 28.8773C159.9 28.5299 160.104 28.2132 160.365 27.9461C160.897 27.4206 161.615 27.1259 162.364 27.1259C163.112 27.1259 163.83 27.4206 164.362 27.9461C164.9 28.4833 165.207 29.2091 165.217 29.9687V54.6517C165.209 55.4117 164.902 56.138 164.362 56.6743C164.1 56.9373 163.789 57.1461 163.446 57.2885C163.103 57.431 162.735 57.5043 162.364 57.5043C161.992 57.5043 161.624 57.431 161.281 57.2885C160.938 57.1461 160.627 56.9373 160.365 56.6743C160.104 56.4074 159.899 56.0908 159.763 55.7433C159.627 55.3958 159.563 55.0246 159.573 54.6517V54.6122ZM165.74 18.6465C165.74 19.306 165.544 19.9506 165.177 20.4989C164.81 21.0472 164.288 21.4746 163.678 21.7269C163.067 21.9793 162.396 22.0453 161.748 21.9167C161.1 21.788 160.504 21.4705 160.037 21.0042C159.57 20.5379 159.252 19.9438 159.123 19.297C158.994 18.6502 159.06 17.9798 159.313 17.3705C159.566 16.7613 159.994 16.2405 160.543 15.8742C161.093 15.5078 161.739 15.3123 162.399 15.3123C163.285 15.3123 164.135 15.6635 164.761 16.2888C165.388 16.9141 165.74 17.7622 165.74 18.6465ZM128.979 30.4823C131.641 28.2637 135.011 27.0722 138.478 27.1243C141.485 27.1414 144.421 28.0341 146.927 29.6931C149.433 31.3521 151.399 33.7051 152.584 36.4634C153.338 38.3201 153.717 40.3069 153.7 42.3102C153.737 44.3109 153.361 46.2977 152.594 48.1465C151.827 49.9954 150.686 51.6666 149.243 53.0556C147.83 54.4671 146.152 55.5867 144.305 56.3506C142.457 57.1145 140.478 57.5076 138.478 57.5076C136.479 57.5076 134.499 57.1145 132.652 56.3506C130.805 55.5867 129.126 54.4671 127.713 53.0556C126.276 51.6642 125.14 49.9936 124.374 48.1468C123.609 46.3 123.231 44.3163 123.264 42.3181V16.9241C123.251 16.5497 123.315 16.1767 123.452 15.8281C123.59 15.4794 123.797 15.1627 124.062 14.8975C124.327 14.6322 124.644 14.4242 124.993 14.2862C125.342 14.1483 125.715 14.0834 126.09 14.0955C126.463 14.0875 126.835 14.1531 127.182 14.2887C127.53 14.4243 127.848 14.6272 128.117 14.8856C128.381 15.1521 128.587 15.4698 128.723 15.819C128.859 16.1683 128.922 16.5417 128.908 16.9162V30.4823H128.979ZM138.526 51.8152C139.808 51.8162 141.075 51.547 142.246 51.0251C143.363 50.5387 144.378 49.8472 145.238 48.9866C146.097 48.1146 146.787 47.0912 147.272 45.9684C147.763 44.8041 148.016 43.5536 148.016 42.2904C148.016 41.0272 147.763 39.7768 147.272 38.6125C146.297 36.3327 144.484 34.512 142.206 33.5242C141.023 33.0237 139.751 32.7658 138.466 32.7658C137.181 32.7658 135.909 33.0237 134.726 33.5242C132.45 34.4956 130.644 36.3157 129.692 38.5967C129.198 39.7643 128.943 41.019 128.943 42.2865C128.943 43.554 129.198 44.8087 129.692 45.9763C130.636 48.2621 132.445 50.0845 134.726 51.0488C135.91 51.5739 137.191 51.8431 138.486 51.8389L138.526 51.8152ZM103.705 32.7894C102.41 32.7889 101.129 33.058 99.9447 33.5795C98.8198 34.067 97.7968 34.7611 96.9289 35.6259C96.0832 36.4899 95.409 37.506 94.942 38.6204C94.4478 39.788 94.1932 41.0427 94.1932 42.3102C94.1932 43.5777 94.4478 44.8324 94.942 46C95.4121 47.132 96.0976 48.1624 96.9605 49.034C97.8288 49.8964 98.8519 50.5879 99.9764 51.0725C101.158 51.5778 102.431 51.8384 103.717 51.8384C105.002 51.8384 106.275 51.5778 107.457 51.0725C109.736 50.0938 111.549 48.2735 112.515 45.9921C113.011 44.8291 113.267 43.5782 113.267 42.3141C113.267 41.0501 113.011 39.7991 112.515 38.6362C111.545 36.3551 109.734 34.5333 107.457 33.5479C106.285 33.0296 105.018 32.7605 103.736 32.7578L103.705 32.7894ZM118.911 42.2707C118.949 44.2709 118.574 46.2575 117.809 48.1064C117.043 49.9553 115.904 51.6267 114.462 53.0161C112.334 55.1429 109.622 56.5916 106.669 57.1788C103.716 57.766 100.654 57.4652 97.8726 56.3146C95.0908 55.164 92.7136 53.2153 91.0421 50.7153C89.3706 48.2152 88.4799 45.2763 88.4829 42.2707C88.4993 39.2735 89.4034 36.348 91.0816 33.8625C92.7597 31.377 95.1369 29.4424 97.9139 28.3022C100.691 27.162 103.744 26.8672 106.688 27.4547C109.633 28.0423 112.338 29.486 114.462 31.6042C115.888 33.0023 117.017 34.674 117.779 36.5187C118.528 38.3578 118.913 40.3247 118.911 42.3102V42.2707Z" fill="#233141"/>
</svg>
