<svg width="78" height="24" viewBox="0 0 78 24" fill="none" xmlns="http://www.w3.org/2000/svg">
<path fill-rule="evenodd" clip-rule="evenodd" d="M12.0152 -0.00744629C14.6774 -0.00633111 17.2637 0.881016 19.3678 2.51516C21.4719 4.14931 22.9746 6.43764 23.6397 9.02058C24.3047 11.6035 24.0945 14.3347 23.0421 16.7849C21.9896 19.2351 20.1546 21.2655 17.8253 22.557C17.9921 19.1513 17.9517 15.0958 15.9953 13.7232C15.9841 13.671 15.9787 13.6176 15.9792 13.5641C16.5496 13.1876 17.0181 12.6752 17.3426 12.0729C17.6671 11.4706 17.8375 10.7971 17.8387 10.1126V9.82676C17.8376 8.74146 17.4104 7.70018 16.6493 6.928C17.1975 6.24941 17.5118 5.4113 17.5454 4.53889C17.202 4.87592 16.8341 5.18687 16.4447 5.46919C15.9237 5.84694 15.3612 6.1636 14.7682 6.41297C11.9883 7.56168 8.89895 6.95227 6.45006 4.53889C6.48434 5.4363 6.81572 6.29676 7.39194 6.98463C6.66386 7.75115 6.25734 8.76856 6.2563 9.82676V10.1126C6.25777 10.8063 6.43298 11.4885 6.76586 12.0967C7.09874 12.7049 7.57864 13.2197 8.16159 13.5938C8.16159 13.6621 8.15621 13.7322 8.14544 13.8041L8.12661 13.8284C5.93875 15.4975 6.05985 20.3567 8.5195 23.5359C5.76879 22.6932 3.41123 20.8894 1.87553 18.4523C0.339838 16.0153 -0.271994 13.1069 0.151296 10.2561C0.574587 7.40528 2.00489 4.80135 4.1821 2.91783C6.35931 1.03431 9.13883 -0.00369824 12.0152 -0.00744629V-0.00744629Z" fill="#28303A"/>
<line x1="29.5" y1="24" x2="29.5" stroke="black"/>
<path d="M58.4465 11.7333C56.2829 13.9871 55.521 15.6339 53.6465 18.1333C53.6465 18.1333 58.5774 18.2201 61.6465 17.6C63.778 17.1693 66.9799 16 66.9799 16C66.9799 16 73.2021 13.6889 73.9132 13.3333C74.6243 12.9777 76.2599 11.9466 77.1132 10.6666C78.1799 9.06664 77.6907 7.39084 76.5799 5.86664C75.1926 3.9632 72.2743 4.16089 70.7506 4.2641L70.7132 4.26664C69.2004 4.36898 68.0465 4.80005 66.9799 5.33334C65.9132 5.86664 61.3313 8.7283 58.4465 11.7333Z" fill="#28303A"/>
<path d="M39.7797 14.4001C40.3568 14.8807 41.9133 15.4667 41.9133 15.4667V12.8V11.2C41.9133 10.1334 41.6498 8.80958 41.38 8.00003C40.8466 6.40003 40.3133 5.94524 39.78 5.33335L38.7133 4.26675C38.18 3.73338 37.1133 3.73334 36.58 4.26669C36.206 4.64071 36 5.29368 36 5.72035V5.94524V6.91526V7.99577C36 8.42244 36.0469 9.60006 37.1133 11.2001C38.117 12.6842 38.4029 13.2536 39.7797 14.4001Z" fill="#28303A"/>
<path d="M48.8465 9.6C48.4199 11.7333 48.3132 13.6889 48.3132 14.4V14.9333L49.3799 13.8667L54.9383 8.30824L55.7799 7.46667C55.7799 7.46667 57.6964 5.15764 57.9132 3.73333C58.0757 2.66552 57.8981 1.5558 57.8981 1.5558C57.3543 0 55.9938 0 55.2465 0H55.2465C54.7132 0 54.1799 0.177778 53.6465 0.533333C52.5799 1.06667 50.9799 3.73333 50.4465 4.8C50.091 5.51111 49.2732 7.46667 48.8465 9.6Z" fill="#28303A"/>
<circle cx="46.1801" cy="19.7333" r="4.26667" fill="#28303A"/>
</svg>
