<svg xmlns="http://www.w3.org/2000/svg" viewBox="0 0 256 256">
    <defs>
        <style>
            .cls-1 {
                fill: none;
            }

            .cls-2 {
                fill: #445160;
            }
        </style>
    </defs>
    <path class="cls-1"
        d="M256,256H0V0H256Zm-129.58-8.66c13.06-24.28,30.7-43.44,50.37-60.91,7.26-6.44,7.46-6.58,2.87-15.44-2.07-4-1.88-7,1.92-9.25,8.43-5,16.78-10.13,25.58-14.36,6.93-3.33,14.47-5.38,22.32-8.21-11.15-11.72-24.46-19.48-38.88-27.69,3.83-1,6.49-1.64,9.12-2.36,10.63-2.93,21.17-6.15,30.13-12.89,10.32-7.76,10.43-17-.08-24.43-16.55-11.67-36-14.56-55.86-18.14.78,5,1.44,9.16,2.33,14.78-11,1.89-21.62,4.32-32.44,5.47A167,167,0,0,1,81.41,69c-3.44-1-5.29-2.11-4-6.13.89-2.73,1-5.72,1.57-9.51-9.13,2-17.43,3.58-25.62,5.6-11,2.72-21.78,6.36-31,13.36-9.36,7.14-9.51,16-.17,23.09a56.82,56.82,0,0,0,13.37,7.63c8.29,3.26,16.89,5.75,26,8.76C48,119.75,34.42,127.4,23.28,139.38l5.47,1.74c13.62,4.5,27.14,9.24,39,17.68,8.41,6,8.37,6.08,4,15.13a20.33,20.33,0,0,1-1.32,2.69c-1.63,2.37-1.24,3.94,1.15,5.78,4.74,3.65,9.3,7.58,13.67,11.67C101.58,209.39,116.14,226.19,126.42,247.34ZM79.66,53.16C111.22,61.37,142,61.5,173.23,53c-1.71-9.26-3.72-17.84-4.76-26.55-.75-6.31-3.9-10.51-9.43-12.27a135.11,135.11,0,0,0-24.1-5.79c-13.35-1.65-26.72-.53-39.18,4.95-4,1.75-8.93,5.1-10,8.75C82.77,31.9,81.65,42.24,79.66,53.16Z" />
    <path class="cls-2"
        d="M126.42,247.34c-10.28-21.15-24.84-38-41.25-53.27-4.37-4.09-8.93-8-13.67-11.67-2.39-1.84-2.78-3.41-1.15-5.78a20.33,20.33,0,0,0,1.32-2.69c4.41-9.05,4.45-9.11-4-15.13-11.82-8.44-25.34-13.18-39-17.68l-5.47-1.74c11.14-12,24.68-19.63,38.3-27.54-9.07-3-17.67-5.5-26-8.76a56.82,56.82,0,0,1-13.37-7.63c-9.34-7.07-9.19-16,.17-23.09,9.19-7,19.93-10.64,31-13.36,8.19-2,16.49-3.62,25.62-5.6-.59,3.79-.68,6.78-1.57,9.51-1.32,4,.53,5.18,4,6.13a167,167,0,0,0,62.39,4.87c10.82-1.15,21.49-3.58,32.44-5.47-.89-5.62-1.55-9.83-2.33-14.78,19.85,3.58,39.31,6.47,55.86,18.14,10.51,7.42,10.4,16.67.08,24.43-9,6.74-19.5,10-30.13,12.89-2.63.72-5.29,1.37-9.12,2.36,14.42,8.21,27.73,16,38.88,27.69-7.85,2.83-15.39,4.88-22.32,8.21-8.8,4.23-17.15,9.4-25.58,14.36-3.8,2.23-4,5.23-1.92,9.25,4.59,8.86,4.39,9-2.87,15.44C157.12,203.9,139.48,223.06,126.42,247.34Zm-39.78-131c7.57,12.92,22.88,14.74,29.52,4.57-4.86-.54-9.67-.9-14.41-1.63S92.05,117.42,86.64,116.35Zm50,5c8.16,10,23.11,7.51,29.14-4.53Z" />
    <path class="cls-2"
        d="M79.66,53.16c2-10.92,3.11-21.26,6.06-31,1.11-3.65,6.07-7,10-8.75,12.46-5.48,25.83-6.6,39.18-4.95A135.11,135.11,0,0,1,159,14.21c5.53,1.76,8.68,6,9.43,12.27,1,8.71,3.05,17.29,4.76,26.55C142,61.5,111.22,61.37,79.66,53.16Z" />
    <path class="cls-1"
        d="M86.64,116.35c5.41,1.07,10.23,2.19,15.11,2.94s9.55,1.09,14.41,1.63C109.52,131.09,94.21,129.27,86.64,116.35Z" />
    <path class="cls-1" d="M136.59,121.3l29.14-4.53C159.7,128.81,144.75,131.25,136.59,121.3Z" />
</svg>