<?xml version="1.0" standalone="no"?>
<!DOCTYPE svg PUBLIC "-//W3C//DTD SVG 20010904//EN"
 "http://www.w3.org/TR/2001/REC-SVG-20010904/DTD/svg10.dtd">
<svg version="1.0" xmlns="http://www.w3.org/2000/svg"
 width="330.000000pt" height="330.000000pt" viewBox="0 0 330.000000 330.000000"
 preserveAspectRatio="xMidYMid meet">
<metadata>
Created by potrace 1.11, written by Peter Selinger 2001-2013
</metadata>
<g transform="translate(0.000000,330.000000) scale(0.100000,-0.100000)"
fill="#000000" stroke="none">
<path d="M1410 3180 c-134 -26 -268 -79 -255 -101 4 -5 1 -8 -6 -7 -17 4 -59
-60 -60 -91 0 -14 -2 -33 -4 -41 -2 -8 -10 -55 -19 -105 -9 -49 -18 -101 -21
-115 -3 -14 -8 -46 -12 -72 -3 -26 -9 -45 -13 -43 -5 3 -46 -2 -92 -11 -45 -9
-94 -18 -108 -21 -122 -22 -308 -82 -415 -134 -281 -136 -274 -319 17 -453 84
-40 226 -88 311 -107 31 -6 57 -15 57 -18 0 -3 -31 -23 -68 -43 -101 -55 -262
-165 -341 -233 -73 -63 -89 -83 -68 -90 304 -93 494 -182 610 -285 l50 -46
-41 -87 c-23 -48 -42 -91 -42 -95 0 -5 26 -30 57 -55 66 -51 112 -93 210 -188
194 -189 326 -358 433 -553 l43 -78 23 46 c42 82 165 264 217 321 35 38 56 72
49 79 -4 4 -2 6 4 4 13 -4 160 151 156 164 -1 5 1 7 6 4 5 -3 35 22 68 55 32
33 94 90 137 126 42 37 77 72 77 78 0 7 -11 34 -25 60 -56 104 -57 111 -28
146 34 40 149 116 246 163 42 20 78 36 82 36 3 0 26 9 50 20 37 17 82 32 252
85 21 7 5 27 -70 91 -83 71 -237 176 -337 231 -68 37 -85 53 -56 53 34 0 265
74 343 110 214 99 286 220 199 335 -15 19 -32 32 -38 29 -7 -4 -8 -2 -4 4 8
13 -73 68 -158 107 -112 51 -351 119 -496 140 -65 10 -93 26 -101 60 -10 38
-50 258 -56 310 -3 22 -12 52 -19 68 -30 58 -134 112 -278 144 -104 23 -358
25 -466 3z"/>
</g>
</svg>
