<svg width="180" height="180" viewBox="0 0 180 180" fill="none" xmlns="http://www.w3.org/2000/svg">
<path d="M125.645 33.5221C140.218 38.6396 162.094 38.2871 173 50.9481C176.079 54.4509 176.044 61.1145 172.645 64.3023C165.28 71.8581 154.201 74.7421 144.272 77.3264L144.068 77.3795C143.768 77.4576 143.463 77.5516 143.153 77.6466C142.349 77.8939 141.522 78.1485 140.712 78.1485C141.199 78.5256 141.722 78.8552 142.273 79.1325C151.743 84.2488 160.982 90.1978 168.6 97.8284C169.452 98.461 169.381 98.7421 168.6 99.0936C167.495 99.4898 166.387 99.8829 165.276 100.277L165.264 100.281C155.729 103.661 146.07 107.086 137.731 112.869L132.409 116.454C131.668 116.891 131.095 117.558 130.777 118.352C130.541 119.755 131.245 121.025 131.913 122.231C132.021 122.427 132.129 122.622 132.232 122.815C132.298 122.94 132.366 123.067 132.435 123.196L132.44 123.205C133.82 125.782 135.617 129.138 133.119 131.565C132.037 132.625 130.818 133.522 129.598 134.421C128.389 135.312 127.177 136.205 126.093 137.259C113.311 149.036 101.613 162.059 93.0248 177.18C92.67 177.813 92.2441 178.446 91.8183 179.078C91.7639 179.202 91.6748 179.307 91.5615 179.382C91.4483 179.457 91.3157 179.498 91.1797 179.5C90.6829 179.359 90.6829 178.867 90.6829 178.867C81.0589 160.39 66.712 144.607 50.305 131.776C49.3171 131.068 48.6266 130.026 48.3649 128.846C48.1032 127.667 48.2886 126.433 48.8857 125.38C49.0163 125.16 49.1604 124.925 49.3123 124.677C50.4566 122.808 52.0367 120.228 51.5261 118.166C51.0294 116.161 48.5454 114.624 46.6859 113.474C46.3815 113.286 46.0938 113.108 45.8343 112.94C36.4305 106.666 25.7038 103.084 15.0486 99.5254L15.0461 99.5246C14.5459 99.3575 14.0459 99.1905 13.5461 99.0233C13.4468 98.9905 13.3359 98.9653 13.2233 98.9398C12.8533 98.8559 12.4651 98.7679 12.4107 98.3907C12.3398 97.8987 12.9075 97.4067 13.2623 97.4067C15.0851 96.0442 16.8866 94.6701 18.6837 93.2995C25.0377 88.453 31.335 83.65 38.3122 79.5542L41.2217 77.7971C40.1905 77.5134 39.1572 77.2342 38.1239 76.955C28.6991 74.4087 19.2671 71.8604 11.3463 65.8486C5.36733 61.209 4.85004 52.0295 11.3463 47.715C15.4154 44.6872 19.9418 42.3152 24.7583 40.6864C30.4406 38.6213 36.2774 36.9998 42.2152 35.8367C46.458 34.8251 50.791 34.1887 55.0905 33.4642L55.1074 33.4642C55.1077 33.4614 55.1079 33.4586 55.1081 33.4558C55.6038 30.9685 56.0442 28.47 56.4845 25.9717C57.4139 20.6988 58.3431 15.4268 59.7917 10.2617C60.1708 9.07963 60.8852 8.03051 61.8496 7.23941C63.9656 5.5108 66.366 4.15562 68.9459 3.23314C83.7326 -2.14317 100.284 -0.261166 114.859 4.8497C116.727 5.35425 118.401 6.39981 119.665 7.85239C120.929 9.30497 121.727 11.0984 121.955 13.0028C123.051 19.8776 124.267 26.6979 125.645 33.5221Z" fill="#9965F4"/>
</svg>
