<svg id="svg" version="1.1" xmlns="http://www.w3.org/2000/svg" xmlns:xlink="http://www.w3.org/1999/xlink" width="400" height="400" viewBox="0, 0, 400,400"><g id="svgg"><path id="path0" d="M378.800 1.600 C 378.800 1.840,377.200 2.000,374.800 2.000 C 372.400 2.000,370.800 2.160,370.800 2.400 C 370.800 2.633,369.467 2.800,367.600 2.800 C 365.733 2.800,364.400 2.967,364.400 3.200 C 364.400 3.422,363.333 3.600,362.000 3.600 C 360.667 3.600,359.600 3.778,359.600 4.000 C 359.600 4.229,358.400 4.400,356.800 4.400 C 355.200 4.400,354.000 4.571,354.000 4.800 C 354.000 5.020,353.100 5.200,352.000 5.200 C 350.900 5.200,350.000 5.380,350.000 5.600 C 350.000 5.820,349.100 6.000,348.000 6.000 C 346.900 6.000,346.000 6.180,346.000 6.400 C 346.000 6.620,345.100 6.800,344.000 6.800 C 342.900 6.800,342.000 6.980,342.000 7.200 C 342.000 7.420,341.201 7.600,340.224 7.600 C 339.247 7.600,338.336 7.780,338.200 8.000 C 338.064 8.220,337.243 8.400,336.376 8.400 C 335.509 8.400,334.800 8.580,334.800 8.800 C 334.800 9.020,334.080 9.200,333.200 9.200 C 332.320 9.200,331.600 9.380,331.600 9.600 C 331.600 9.820,330.880 10.000,330.000 10.000 C 329.120 10.000,328.400 10.180,328.400 10.400 C 328.400 10.620,327.860 10.800,327.200 10.800 C 326.540 10.800,326.000 10.980,326.000 11.200 C 326.000 11.420,325.280 11.600,324.400 11.600 C 323.520 11.600,322.800 11.780,322.800 12.000 C 322.800 12.220,322.260 12.400,321.600 12.400 C 320.940 12.400,320.400 12.580,320.400 12.800 C 320.400 13.020,319.860 13.200,319.200 13.200 C 318.540 13.200,318.000 13.380,318.000 13.600 C 318.000 13.820,317.280 14.000,316.400 14.000 C 315.520 14.000,314.800 14.180,314.800 14.400 C 314.800 14.620,314.260 14.800,313.600 14.800 C 312.940 14.800,312.400 14.980,312.400 15.200 C 312.400 15.420,311.860 15.600,311.200 15.600 C 310.540 15.600,310.000 15.780,310.000 16.000 C 310.000 16.220,309.460 16.400,308.800 16.400 C 308.140 16.400,307.600 16.580,307.600 16.800 C 307.600 17.020,307.060 17.200,306.400 17.200 C 305.740 17.200,305.200 17.380,305.200 17.600 C 305.200 17.820,304.840 18.000,304.400 18.000 C 303.960 18.000,303.600 18.180,303.600 18.400 C 303.600 18.620,303.060 18.800,302.400 18.800 C 301.740 18.800,301.200 18.980,301.200 19.200 C 301.200 19.420,300.761 19.600,300.224 19.600 C 299.687 19.600,299.136 19.780,299.000 20.000 C 298.864 20.220,298.403 20.400,297.976 20.400 C 297.549 20.400,297.200 20.580,297.200 20.800 C 297.200 21.020,296.660 21.200,296.000 21.200 C 295.340 21.200,294.800 21.380,294.800 21.600 C 294.800 21.820,294.440 22.000,294.000 22.000 C 293.560 22.000,293.200 22.180,293.200 22.400 C 293.200 22.620,292.840 22.800,292.400 22.800 C 291.960 22.800,291.600 22.980,291.600 23.200 C 291.600 23.420,291.240 23.600,290.800 23.600 C 290.360 23.600,290.000 23.780,290.000 24.000 C 290.000 24.220,289.460 24.400,288.800 24.400 C 288.140 24.400,287.600 24.580,287.600 24.800 C 287.600 25.020,287.240 25.200,286.800 25.200 C 286.360 25.200,286.000 25.380,286.000 25.600 C 286.000 25.820,285.640 26.000,285.200 26.000 C 284.760 26.000,284.400 26.180,284.400 26.400 C 284.400 26.620,284.040 26.800,283.600 26.800 C 283.160 26.800,282.800 26.980,282.800 27.200 C 282.800 27.420,282.440 27.600,282.000 27.600 C 281.560 27.600,281.200 27.780,281.200 28.000 C 281.200 28.220,280.840 28.400,280.400 28.400 C 279.960 28.400,279.600 28.580,279.600 28.800 C 279.600 29.020,279.240 29.200,278.800 29.200 C 278.360 29.200,278.000 29.380,278.000 29.600 C 278.000 29.820,277.640 30.000,277.200 30.000 C 276.760 30.000,276.400 30.180,276.400 30.400 C 276.400 30.620,276.040 30.800,275.600 30.800 C 275.160 30.800,274.800 30.980,274.800 31.200 C 274.800 31.420,274.440 31.600,274.000 31.600 C 273.560 31.600,273.200 31.780,273.200 32.000 C 273.200 32.220,272.840 32.400,272.400 32.400 C 271.960 32.400,271.600 32.580,271.600 32.800 C 271.600 33.020,271.240 33.200,270.800 33.200 C 270.360 33.200,270.000 33.380,270.000 33.600 C 270.000 33.820,269.640 34.000,269.200 34.000 C 268.760 34.000,268.400 34.180,268.400 34.400 C 268.400 34.620,268.164 34.800,267.875 34.800 C 267.587 34.800,266.964 35.160,266.492 35.600 C 266.020 36.040,265.356 36.400,265.017 36.400 C 264.678 36.400,264.400 36.580,264.400 36.800 C 264.400 37.020,264.122 37.200,263.783 37.200 C 263.444 37.200,262.780 37.560,262.308 38.000 C 261.836 38.440,261.213 38.800,260.925 38.800 C 260.636 38.800,260.400 38.980,260.400 39.200 C 260.400 39.420,260.080 39.600,259.688 39.600 C 259.297 39.600,258.717 39.960,258.400 40.400 C 258.083 40.840,257.585 41.200,257.294 41.200 C 257.002 41.200,256.310 41.653,255.756 42.208 C 255.202 42.762,254.552 43.094,254.312 42.946 C 254.051 42.785,253.991 42.862,254.162 43.138 C 254.319 43.392,254.244 43.600,253.995 43.600 C 253.746 43.600,253.271 43.872,252.939 44.204 C 252.607 44.536,252.142 44.688,251.906 44.542 C 251.651 44.385,251.593 44.464,251.762 44.738 C 251.931 45.012,251.793 45.200,251.424 45.200 C 251.081 45.200,250.800 45.380,250.800 45.600 C 250.800 45.820,250.557 46.000,250.259 46.000 C 249.962 46.000,249.154 46.540,248.463 47.200 C 247.772 47.860,247.052 48.400,246.863 48.400 C 246.674 48.400,245.954 48.940,245.263 49.600 C 244.572 50.260,243.812 50.800,243.572 50.800 C 243.333 50.800,242.446 51.520,241.600 52.400 C 240.754 53.280,239.857 54.000,239.605 54.000 C 239.354 54.000,238.271 54.900,237.200 56.000 C 236.129 57.100,235.055 58.000,234.813 58.000 C 234.572 58.000,232.406 59.980,230.000 62.400 C 227.594 64.820,225.478 66.800,225.298 66.800 C 224.912 66.800,221.200 70.506,221.200 70.891 C 221.200 71.036,218.140 74.235,214.400 78.000 C 210.660 81.765,207.600 85.025,207.600 85.245 C 207.600 85.464,206.556 86.669,205.281 87.922 C 204.005 89.175,202.840 90.515,202.693 90.900 C 202.546 91.285,202.149 91.600,201.813 91.600 C 201.476 91.600,201.200 91.869,201.200 92.197 C 201.200 92.526,199.220 94.785,196.800 97.218 C 194.380 99.651,192.400 101.822,192.400 102.043 C 192.400 102.264,191.320 103.504,190.000 104.800 C 188.680 106.096,187.600 107.354,187.600 107.597 C 187.600 107.840,186.340 109.281,184.800 110.800 C 183.260 112.319,182.000 113.749,182.000 113.978 C 182.000 114.207,180.560 115.848,178.800 117.624 C 177.040 119.401,175.600 121.034,175.600 121.253 C 175.600 121.473,174.700 122.529,173.600 123.600 C 172.500 124.671,171.600 125.716,171.600 125.920 C 171.600 126.125,170.340 127.601,168.800 129.200 C 167.260 130.799,166.000 132.277,166.000 132.485 C 166.000 132.693,165.280 133.554,164.400 134.400 C 163.520 135.246,162.800 136.130,162.800 136.366 C 162.800 136.602,161.720 137.892,160.400 139.232 C 159.080 140.573,158.000 141.846,158.000 142.061 C 158.000 142.276,157.100 143.329,156.000 144.400 C 154.900 145.471,154.000 146.550,154.000 146.796 C 154.000 147.043,152.920 148.304,151.600 149.600 C 150.280 150.896,149.200 152.127,149.200 152.337 C 149.200 152.547,148.300 153.638,147.200 154.761 C 146.100 155.885,145.200 156.995,145.200 157.228 C 145.200 157.461,144.300 158.529,143.200 159.600 C 142.100 160.671,141.200 161.751,141.200 162.000 C 141.200 162.249,140.300 163.329,139.200 164.400 C 138.100 165.471,137.200 166.554,137.200 166.805 C 137.200 167.057,136.458 167.976,135.550 168.848 C 134.643 169.720,133.997 170.531,134.117 170.650 C 134.236 170.769,133.358 171.834,132.167 173.016 C 130.975 174.198,130.000 175.335,130.000 175.542 C 130.000 175.749,129.100 176.838,128.000 177.961 C 126.900 179.085,126.000 180.273,126.000 180.602 C 126.000 181.128,121.634 181.200,89.600 181.200 C 56.899 181.200,53.200 181.263,53.200 181.824 C 53.200 182.193,53.012 182.331,52.738 182.162 C 52.464 181.993,52.385 182.051,52.542 182.306 C 52.688 182.542,52.536 183.007,52.204 183.339 C 51.872 183.671,51.600 184.146,51.600 184.395 C 51.600 184.644,51.392 184.719,51.138 184.562 C 50.864 184.393,50.785 184.451,50.942 184.706 C 51.088 184.942,50.936 185.407,50.604 185.739 C 50.272 186.071,50.000 186.546,50.000 186.795 C 50.000 187.044,49.792 187.119,49.538 186.962 C 49.264 186.793,49.185 186.851,49.342 187.106 C 49.488 187.342,49.336 187.807,49.004 188.139 C 48.672 188.471,48.400 188.946,48.400 189.195 C 48.400 189.444,48.192 189.519,47.938 189.362 C 47.664 189.193,47.585 189.251,47.742 189.506 C 47.888 189.742,47.736 190.207,47.404 190.539 C 47.072 190.871,46.800 191.346,46.800 191.595 C 46.800 191.844,46.592 191.919,46.338 191.762 C 46.064 191.593,45.985 191.651,46.142 191.906 C 46.288 192.142,46.136 192.607,45.804 192.939 C 45.472 193.271,45.200 193.746,45.200 193.995 C 45.200 194.244,44.992 194.319,44.738 194.162 C 44.464 193.993,44.385 194.051,44.542 194.306 C 44.688 194.542,44.536 195.007,44.204 195.339 C 43.872 195.671,43.600 196.146,43.600 196.395 C 43.600 196.644,43.392 196.719,43.138 196.562 C 42.864 196.393,42.785 196.451,42.942 196.706 C 43.088 196.942,42.936 197.407,42.604 197.739 C 42.272 198.071,42.000 198.546,42.000 198.795 C 42.000 199.044,41.792 199.119,41.538 198.962 C 41.264 198.793,41.185 198.851,41.342 199.106 C 41.488 199.342,41.336 199.807,41.004 200.139 C 40.672 200.471,40.400 200.946,40.400 201.195 C 40.400 201.444,40.192 201.519,39.938 201.362 C 39.664 201.193,39.585 201.251,39.742 201.506 C 39.888 201.742,39.736 202.207,39.404 202.539 C 39.072 202.871,38.800 203.346,38.800 203.595 C 38.800 203.844,38.592 203.919,38.338 203.762 C 38.064 203.593,37.985 203.651,38.142 203.906 C 38.288 204.142,38.136 204.607,37.804 204.939 C 37.472 205.271,37.200 205.746,37.200 205.995 C 37.200 206.244,36.992 206.319,36.738 206.162 C 36.464 205.993,36.385 206.051,36.542 206.306 C 36.688 206.542,36.536 207.007,36.204 207.339 C 35.872 207.671,35.600 208.146,35.600 208.395 C 35.600 208.644,35.392 208.719,35.138 208.562 C 34.864 208.393,34.785 208.451,34.942 208.706 C 35.088 208.942,34.936 209.407,34.604 209.739 C 34.272 210.071,34.000 210.546,34.000 210.795 C 34.000 211.044,33.792 211.119,33.538 210.962 C 33.264 210.793,33.185 210.851,33.342 211.106 C 33.488 211.342,33.336 211.807,33.004 212.139 C 32.672 212.471,32.400 212.946,32.400 213.195 C 32.400 213.444,32.192 213.519,31.938 213.362 C 31.664 213.193,31.585 213.251,31.742 213.506 C 31.888 213.742,31.736 214.207,31.404 214.539 C 31.072 214.871,30.800 215.346,30.800 215.595 C 30.800 215.844,30.592 215.919,30.338 215.762 C 30.064 215.593,29.985 215.651,30.142 215.906 C 30.288 216.142,30.136 216.607,29.804 216.939 C 29.472 217.271,29.200 217.746,29.200 217.995 C 29.200 218.244,28.992 218.319,28.738 218.162 C 28.464 217.993,28.385 218.051,28.542 218.306 C 28.688 218.542,28.536 219.007,28.204 219.339 C 27.872 219.671,27.600 220.146,27.600 220.395 C 27.600 220.644,27.392 220.719,27.138 220.562 C 26.864 220.393,26.785 220.451,26.942 220.706 C 27.088 220.942,26.936 221.407,26.604 221.739 C 26.272 222.071,26.000 222.546,26.000 222.795 C 26.000 223.044,25.792 223.119,25.538 222.962 C 25.264 222.793,25.185 222.851,25.342 223.106 C 25.488 223.342,25.336 223.807,25.004 224.139 C 24.672 224.471,24.400 224.946,24.400 225.195 C 24.400 225.444,24.192 225.519,23.938 225.362 C 23.664 225.193,23.585 225.251,23.742 225.506 C 23.888 225.742,23.736 226.207,23.404 226.539 C 23.072 226.871,22.800 227.346,22.800 227.595 C 22.800 227.844,22.592 227.919,22.338 227.762 C 22.064 227.593,21.985 227.651,22.142 227.906 C 22.288 228.142,22.136 228.607,21.804 228.939 C 21.472 229.271,21.200 229.746,21.200 229.995 C 21.200 230.244,21.047 230.353,20.860 230.237 C 20.673 230.121,20.538 230.516,20.560 231.113 C 20.595 232.055,20.787 232.217,22.000 232.329 C 22.770 232.399,23.571 232.624,23.780 232.829 C 23.989 233.033,24.754 233.200,25.480 233.200 C 26.206 233.200,26.800 233.380,26.800 233.600 C 26.800 233.820,27.419 234.000,28.176 234.000 C 28.933 234.000,29.664 234.180,29.800 234.400 C 29.936 234.620,30.577 234.800,31.224 234.800 C 31.871 234.800,32.400 234.980,32.400 235.200 C 32.400 235.420,33.120 235.600,34.000 235.600 C 34.880 235.600,35.600 235.780,35.600 236.000 C 35.600 236.220,36.320 236.400,37.200 236.400 C 38.080 236.400,38.800 236.580,38.800 236.800 C 38.800 237.020,39.329 237.200,39.976 237.200 C 40.623 237.200,41.264 237.380,41.400 237.600 C 41.536 237.820,42.267 238.000,43.024 238.000 C 43.781 238.000,44.400 238.180,44.400 238.400 C 44.400 238.620,45.120 238.800,46.000 238.800 C 46.880 238.800,47.600 238.980,47.600 239.200 C 47.600 239.420,48.129 239.600,48.776 239.600 C 49.423 239.600,50.064 239.780,50.200 240.000 C 50.336 240.220,51.056 240.400,51.800 240.400 C 52.544 240.400,53.264 240.580,53.400 240.800 C 53.536 241.020,54.267 241.200,55.024 241.200 C 55.781 241.200,56.400 241.380,56.400 241.600 C 56.400 241.820,56.929 242.000,57.576 242.000 C 58.223 242.000,58.864 242.180,59.000 242.400 C 59.136 242.620,59.867 242.800,60.624 242.800 C 61.381 242.800,62.000 242.980,62.000 243.200 C 62.000 243.420,62.720 243.600,63.600 243.600 C 64.480 243.600,65.200 243.780,65.200 244.000 C 65.200 244.220,65.920 244.400,66.800 244.400 C 67.680 244.400,68.400 244.580,68.400 244.800 C 68.400 245.020,68.929 245.200,69.576 245.200 C 70.223 245.200,70.864 245.380,71.000 245.600 C 71.136 245.820,71.867 246.000,72.624 246.000 C 73.381 246.000,74.000 246.180,74.000 246.400 C 74.000 246.620,74.540 246.800,75.200 246.800 C 76.373 246.800,76.400 246.844,76.400 248.800 C 76.400 249.900,76.580 250.800,76.800 250.800 C 77.020 250.800,77.200 251.340,77.200 252.000 C 77.200 252.660,77.380 253.200,77.600 253.200 C 78.121 253.200,78.121 255.478,77.600 255.800 C 77.380 255.936,77.200 256.587,77.200 257.247 C 77.200 257.945,77.033 258.344,76.800 258.200 C 76.580 258.064,76.400 258.323,76.400 258.776 C 76.400 259.229,76.220 259.600,76.000 259.600 C 75.780 259.600,75.600 259.960,75.600 260.400 C 75.600 260.840,75.420 261.200,75.200 261.200 C 74.980 261.200,74.800 261.616,74.800 262.125 C 74.800 262.633,74.440 263.436,74.000 263.908 C 73.560 264.380,73.200 265.033,73.200 265.360 C 73.200 265.686,73.020 266.064,72.800 266.200 C 72.580 266.336,72.400 266.887,72.400 267.424 C 72.400 267.961,72.220 268.400,72.000 268.400 C 71.780 268.400,71.600 268.760,71.600 269.200 C 71.600 269.640,71.420 270.000,71.200 270.000 C 70.980 270.000,70.800 270.461,70.800 271.024 C 70.800 271.587,70.657 271.959,70.483 271.851 C 70.309 271.744,70.137 272.045,70.101 272.521 C 70.065 272.997,69.811 273.805,69.537 274.318 C 69.147 275.046,69.143 275.417,69.519 276.019 C 69.784 276.443,70.000 277.242,70.000 277.795 C 70.000 278.348,70.180 278.800,70.400 278.800 C 70.620 278.800,70.800 279.340,70.800 280.000 C 70.800 280.660,70.980 281.200,71.200 281.200 C 71.420 281.200,71.600 281.560,71.600 282.000 C 71.600 282.440,71.780 282.800,72.000 282.800 C 72.220 282.800,72.400 283.036,72.400 283.325 C 72.400 283.613,72.760 284.236,73.200 284.708 C 73.640 285.180,74.000 285.844,74.000 286.183 C 74.000 286.522,74.180 286.800,74.400 286.800 C 74.620 286.800,74.800 287.036,74.800 287.325 C 74.800 287.613,75.160 288.236,75.600 288.708 C 76.040 289.180,76.400 289.727,76.400 289.924 C 76.400 290.121,76.940 290.846,77.600 291.537 C 78.260 292.228,78.800 292.956,78.800 293.156 C 78.800 293.356,79.700 294.438,80.800 295.561 C 81.900 296.685,82.800 297.873,82.800 298.202 C 82.800 298.531,83.076 298.800,83.413 298.800 C 83.749 298.800,84.140 299.100,84.281 299.467 C 84.422 299.834,85.586 301.199,86.868 302.502 C 88.151 303.804,89.200 305.049,89.200 305.268 C 89.200 305.742,96.782 313.200,97.263 313.200 C 97.445 313.200,98.869 314.460,100.428 316.000 C 101.986 317.540,103.442 318.800,103.662 318.800 C 103.882 318.800,104.754 319.520,105.600 320.400 C 106.446 321.280,107.349 322.000,107.608 322.000 C 107.867 322.000,108.583 322.540,109.200 323.200 C 109.817 323.860,110.569 324.400,110.872 324.400 C 111.175 324.400,111.683 324.760,112.000 325.200 C 112.317 325.640,112.897 326.000,113.288 326.000 C 113.680 326.000,114.000 326.180,114.000 326.400 C 114.000 326.620,114.360 326.800,114.800 326.800 C 115.240 326.800,115.600 326.980,115.600 327.200 C 115.600 327.420,115.836 327.600,116.125 327.600 C 116.413 327.600,117.036 327.960,117.508 328.400 C 117.984 328.843,118.919 329.200,119.607 329.200 C 120.289 329.200,120.750 329.358,120.630 329.551 C 120.511 329.744,122.211 329.933,124.407 329.970 C 126.970 330.015,128.400 329.889,128.400 329.620 C 128.400 329.389,128.760 329.200,129.200 329.200 C 129.640 329.200,130.000 329.020,130.000 328.800 C 130.000 328.580,130.439 328.400,130.976 328.400 C 131.513 328.400,132.064 328.220,132.200 328.000 C 132.336 327.780,132.797 327.600,133.224 327.600 C 133.651 327.600,134.000 327.420,134.000 327.200 C 134.000 326.980,134.360 326.800,134.800 326.800 C 135.240 326.800,135.600 326.620,135.600 326.400 C 135.600 326.180,135.960 326.000,136.400 326.000 C 136.840 326.000,137.200 325.820,137.200 325.600 C 137.200 325.380,137.560 325.200,138.000 325.200 C 138.440 325.200,138.800 325.020,138.800 324.800 C 138.800 324.580,139.239 324.400,139.776 324.400 C 140.313 324.400,140.864 324.220,141.000 324.000 C 141.136 323.780,141.597 323.600,142.024 323.600 C 142.451 323.600,142.800 323.420,142.800 323.200 C 142.800 322.980,143.160 322.800,143.600 322.800 C 144.040 322.800,144.400 322.620,144.400 322.400 C 144.400 322.180,144.760 322.000,145.200 322.000 C 145.640 322.000,146.000 321.820,146.000 321.600 C 146.000 321.380,146.540 321.200,147.200 321.200 C 147.860 321.200,148.400 321.380,148.400 321.600 C 148.400 321.820,149.264 322.000,150.320 322.000 C 152.576 322.000,153.200 322.489,153.200 324.256 C 153.200 324.969,153.380 325.664,153.600 325.800 C 153.820 325.936,154.000 326.577,154.000 327.224 C 154.000 327.871,154.180 328.400,154.400 328.400 C 154.620 328.400,154.800 329.120,154.800 330.000 C 154.800 330.880,154.980 331.600,155.200 331.600 C 155.420 331.600,155.600 332.219,155.600 332.976 C 155.600 333.733,155.780 334.464,156.000 334.600 C 156.220 334.736,156.400 335.377,156.400 336.024 C 156.400 336.671,156.580 337.200,156.800 337.200 C 157.020 337.200,157.200 337.920,157.200 338.800 C 157.200 339.680,157.380 340.400,157.600 340.400 C 157.820 340.400,158.000 341.019,158.000 341.776 C 158.000 342.533,158.180 343.264,158.400 343.400 C 158.620 343.536,158.800 344.177,158.800 344.824 C 158.800 345.471,158.980 346.000,159.200 346.000 C 159.420 346.000,159.600 346.720,159.600 347.600 C 159.600 348.480,159.780 349.200,160.000 349.200 C 160.220 349.200,160.400 349.819,160.400 350.576 C 160.400 351.333,160.580 352.064,160.800 352.200 C 161.020 352.336,161.200 353.056,161.200 353.800 C 161.200 354.544,161.380 355.264,161.600 355.400 C 161.820 355.536,162.000 356.177,162.000 356.824 C 162.000 357.471,162.180 358.000,162.400 358.000 C 162.620 358.000,162.800 358.720,162.800 359.600 C 162.800 360.480,162.980 361.200,163.200 361.200 C 163.420 361.200,163.600 361.819,163.600 362.576 C 163.600 363.333,163.780 364.064,164.000 364.200 C 164.220 364.336,164.400 364.977,164.400 365.624 C 164.400 366.271,164.580 366.800,164.800 366.800 C 165.020 366.800,165.200 367.520,165.200 368.400 C 165.200 369.280,165.380 370.000,165.600 370.000 C 165.820 370.000,166.000 370.619,166.000 371.376 C 166.000 372.133,166.180 372.864,166.400 373.000 C 166.620 373.136,166.800 373.856,166.800 374.600 C 166.800 375.344,166.980 376.064,167.200 376.200 C 167.420 376.336,167.600 376.899,167.600 377.452 C 167.600 379.394,169.361 380.242,170.400 378.800 C 170.717 378.360,171.257 378.000,171.600 378.000 C 171.943 378.000,172.483 377.640,172.800 377.200 C 173.117 376.760,173.657 376.400,174.000 376.400 C 174.343 376.400,174.883 376.040,175.200 375.600 C 175.517 375.160,176.057 374.800,176.400 374.800 C 176.743 374.800,177.283 374.440,177.600 374.000 C 177.917 373.560,178.457 373.200,178.800 373.200 C 179.143 373.200,179.683 372.840,180.000 372.400 C 180.317 371.960,180.857 371.600,181.200 371.600 C 181.543 371.600,182.083 371.240,182.400 370.800 C 182.717 370.360,183.257 370.000,183.600 370.000 C 183.943 370.000,184.483 369.640,184.800 369.200 C 185.117 368.760,185.657 368.400,186.000 368.400 C 186.343 368.400,186.883 368.040,187.200 367.600 C 187.517 367.160,188.057 366.800,188.400 366.800 C 188.743 366.800,189.283 366.440,189.600 366.000 C 189.917 365.560,190.457 365.200,190.800 365.200 C 191.143 365.200,191.683 364.840,192.000 364.400 C 192.317 363.960,192.857 363.600,193.200 363.600 C 193.543 363.600,194.083 363.240,194.400 362.800 C 194.717 362.360,195.257 362.000,195.600 362.000 C 195.943 362.000,196.483 361.640,196.800 361.200 C 197.117 360.760,197.657 360.400,198.000 360.400 C 198.343 360.400,198.883 360.040,199.200 359.600 C 199.517 359.160,200.097 358.800,200.488 358.800 C 200.880 358.800,201.200 358.650,201.200 358.468 C 201.200 358.285,201.695 357.880,202.300 357.568 C 202.905 357.255,203.749 356.685,204.175 356.300 C 204.602 355.915,205.187 355.600,205.475 355.600 C 205.764 355.600,206.000 355.450,206.000 355.268 C 206.000 355.085,206.495 354.680,207.100 354.368 C 207.705 354.055,208.549 353.485,208.975 353.100 C 209.402 352.715,209.987 352.400,210.275 352.400 C 210.564 352.400,210.800 352.250,210.800 352.068 C 210.800 351.885,211.295 351.480,211.900 351.168 C 212.505 350.855,213.349 350.285,213.775 349.900 C 214.202 349.515,214.787 349.200,215.075 349.200 C 215.364 349.200,215.600 349.050,215.600 348.868 C 215.600 348.685,216.095 348.280,216.700 347.968 C 217.305 347.655,218.025 347.188,218.300 346.929 C 218.693 346.558,218.800 338.571,218.800 309.618 L 218.800 272.779 220.589 270.989 C 221.574 270.005,222.545 269.200,222.749 269.200 C 222.952 269.200,224.038 268.300,225.161 267.200 C 226.285 266.100,227.397 265.200,227.633 265.200 C 227.870 265.200,228.754 264.480,229.600 263.600 C 230.446 262.720,231.346 262.000,231.600 262.000 C 231.854 262.000,232.754 261.280,233.600 260.400 C 234.446 259.520,235.313 258.800,235.528 258.800 C 235.743 258.800,236.838 257.900,237.961 256.800 C 239.085 255.700,240.195 254.800,240.428 254.800 C 240.661 254.800,241.729 253.900,242.800 252.800 C 243.871 251.700,244.922 250.800,245.134 250.800 C 245.346 250.800,246.438 249.900,247.561 248.800 C 248.685 247.700,249.795 246.800,250.028 246.800 C 250.261 246.800,251.329 245.900,252.400 244.800 C 253.471 243.700,254.554 242.800,254.805 242.800 C 255.057 242.800,255.954 242.080,256.800 241.200 C 257.646 240.320,258.543 239.600,258.795 239.600 C 259.046 239.600,260.129 238.700,261.200 237.600 C 262.271 236.500,263.324 235.600,263.539 235.600 C 263.754 235.600,265.027 234.520,266.368 233.200 C 267.708 231.880,268.998 230.800,269.234 230.800 C 269.470 230.800,270.354 230.080,271.200 229.200 C 272.046 228.320,272.925 227.600,273.155 227.600 C 273.384 227.600,273.765 227.240,274.000 226.800 C 274.235 226.360,274.620 226.000,274.854 226.000 C 275.088 226.000,275.783 225.460,276.400 224.800 C 277.017 224.140,277.730 223.600,277.986 223.600 C 278.242 223.600,279.329 222.700,280.400 221.600 C 281.471 220.500,282.649 219.600,283.017 219.600 C 283.436 219.600,283.603 219.384,283.463 219.020 C 283.324 218.658,283.568 218.337,284.112 218.164 C 284.592 218.012,285.465 217.373,286.052 216.744 C 286.640 216.115,287.305 215.600,287.530 215.600 C 287.755 215.600,289.214 214.340,290.772 212.800 C 292.331 211.260,293.771 210.000,293.972 210.000 C 294.174 210.000,295.614 208.740,297.172 207.200 C 298.731 205.660,300.194 204.400,300.425 204.400 C 300.656 204.400,301.904 203.320,303.200 202.000 C 304.496 200.680,305.732 199.600,305.947 199.600 C 306.163 199.600,307.574 198.385,309.084 196.900 C 310.593 195.415,312.523 193.676,313.373 193.035 C 314.222 192.394,316.196 190.593,317.759 189.031 C 319.321 187.470,321.230 185.747,322.000 185.202 C 322.770 184.658,325.329 182.275,327.687 179.906 C 330.045 177.538,332.166 175.600,332.400 175.600 C 332.634 175.600,332.940 175.300,333.081 174.934 C 333.221 174.568,335.285 172.309,337.668 169.914 C 340.051 167.519,342.000 165.389,342.000 165.182 C 342.000 164.975,343.080 163.708,344.400 162.368 C 345.720 161.027,346.800 159.766,346.800 159.566 C 346.800 159.365,347.520 158.459,348.400 157.552 C 349.280 156.645,350.000 155.727,350.000 155.512 C 350.000 155.297,350.540 154.617,351.200 154.000 C 351.860 153.383,352.400 152.631,352.400 152.328 C 352.400 152.025,352.760 151.517,353.200 151.200 C 353.640 150.883,354.000 150.375,354.000 150.072 C 354.000 149.769,354.540 149.017,355.200 148.400 C 355.860 147.783,356.400 147.031,356.400 146.728 C 356.400 146.425,356.760 145.917,357.200 145.600 C 357.640 145.283,358.000 144.791,358.000 144.508 C 358.000 144.225,358.540 143.428,359.200 142.737 C 359.860 142.046,360.400 141.321,360.400 141.124 C 360.400 140.927,360.760 140.380,361.200 139.908 C 361.640 139.436,362.000 138.813,362.000 138.525 C 362.000 138.236,362.180 138.000,362.400 138.000 C 362.620 138.000,362.800 137.680,362.800 137.288 C 362.800 136.897,363.160 136.317,363.600 136.000 C 364.040 135.683,364.400 135.186,364.400 134.895 C 364.400 134.604,364.760 133.980,365.200 133.508 C 365.640 133.036,366.000 132.413,366.000 132.125 C 366.000 131.836,366.180 131.600,366.400 131.600 C 366.620 131.600,366.800 131.240,366.800 130.800 C 366.800 130.360,366.980 130.000,367.200 130.000 C 367.420 130.000,367.600 129.764,367.600 129.475 C 367.600 129.187,367.960 128.564,368.400 128.092 C 368.840 127.620,369.200 126.956,369.200 126.617 C 369.200 126.278,369.380 126.000,369.600 126.000 C 369.820 126.000,370.000 125.640,370.000 125.200 C 370.000 124.760,370.180 124.400,370.400 124.400 C 370.620 124.400,370.800 124.080,370.800 123.688 C 370.800 123.297,371.160 122.717,371.600 122.400 C 372.040 122.083,372.400 121.503,372.400 121.112 C 372.400 120.720,372.580 120.400,372.800 120.400 C 373.020 120.400,373.200 120.040,373.200 119.600 C 373.200 119.160,373.380 118.800,373.600 118.800 C 373.820 118.800,374.000 118.260,374.000 117.600 C 374.000 116.940,374.180 116.400,374.400 116.400 C 374.620 116.400,374.800 116.040,374.800 115.600 C 374.800 115.160,374.980 114.800,375.200 114.800 C 375.420 114.800,375.600 114.440,375.600 114.000 C 375.600 113.560,375.780 113.200,376.000 113.200 C 376.220 113.200,376.400 112.786,376.400 112.280 C 376.400 111.226,377.253 109.208,377.700 109.203 C 377.865 109.201,378.000 108.840,378.000 108.400 C 378.000 107.960,378.180 107.600,378.400 107.600 C 378.620 107.600,378.800 107.060,378.800 106.400 C 378.800 105.740,378.980 105.200,379.200 105.200 C 379.420 105.200,379.600 104.761,379.600 104.224 C 379.600 103.687,379.780 103.136,380.000 103.000 C 380.220 102.864,380.400 102.403,380.400 101.976 C 380.400 101.549,380.580 101.200,380.800 101.200 C 381.020 101.200,381.200 100.660,381.200 100.000 C 381.200 99.340,381.380 98.800,381.600 98.800 C 381.820 98.800,382.000 98.361,382.000 97.824 C 382.000 97.287,382.180 96.736,382.400 96.600 C 382.620 96.464,382.800 96.003,382.800 95.576 C 382.800 95.149,382.980 94.800,383.200 94.800 C 383.420 94.800,383.600 94.260,383.600 93.600 C 383.600 92.940,383.780 92.400,384.000 92.400 C 384.220 92.400,384.400 91.860,384.400 91.200 C 384.400 90.540,384.580 90.000,384.800 90.000 C 385.020 90.000,385.200 89.471,385.200 88.824 C 385.200 88.177,385.380 87.536,385.600 87.400 C 385.820 87.264,386.000 86.533,386.000 85.776 C 386.000 85.019,386.180 84.400,386.400 84.400 C 386.620 84.400,386.800 83.860,386.800 83.200 C 386.800 82.540,386.980 82.000,387.200 82.000 C 387.420 82.000,387.600 81.471,387.600 80.824 C 387.600 80.177,387.780 79.536,388.000 79.400 C 388.220 79.264,388.400 78.533,388.400 77.776 C 388.400 77.019,388.580 76.400,388.800 76.400 C 389.020 76.400,389.200 75.680,389.200 74.800 C 389.200 73.920,389.380 73.200,389.600 73.200 C 389.820 73.200,390.000 72.480,390.000 71.600 C 390.000 70.720,390.180 70.000,390.400 70.000 C 390.620 70.000,390.800 69.280,390.800 68.400 C 390.800 67.520,390.980 66.800,391.200 66.800 C 391.420 66.800,391.600 65.900,391.600 64.800 C 391.600 63.700,391.780 62.800,392.000 62.800 C 392.220 62.800,392.400 62.080,392.400 61.200 C 392.400 60.320,392.580 59.600,392.800 59.600 C 393.020 59.600,393.200 58.700,393.200 57.600 C 393.200 56.500,393.380 55.600,393.600 55.600 C 393.820 55.600,394.000 54.621,394.000 53.424 C 394.000 52.227,394.180 51.136,394.400 51.000 C 394.620 50.864,394.800 49.874,394.800 48.800 C 394.800 47.726,394.980 46.736,395.200 46.600 C 395.420 46.464,395.600 45.384,395.600 44.200 C 395.600 43.016,395.780 41.936,396.000 41.800 C 396.220 41.664,396.400 40.404,396.400 39.000 C 396.400 37.596,396.580 36.336,396.800 36.200 C 397.020 36.064,397.200 34.433,397.200 32.576 C 397.200 30.592,397.365 29.200,397.600 29.200 C 397.842 29.200,398.000 27.467,398.000 24.800 C 398.000 22.133,398.158 20.400,398.400 20.400 C 398.656 20.400,398.800 16.933,398.800 10.800 L 398.800 1.200 388.800 1.200 C 382.400 1.200,378.800 1.344,378.800 1.600 M289.000 84.800 C 289.136 85.020,289.957 85.200,290.824 85.200 C 291.691 85.200,292.400 85.380,292.400 85.600 C 292.400 85.820,292.760 86.000,293.200 86.000 C 293.640 86.000,294.000 86.180,294.000 86.400 C 294.000 86.620,294.540 86.800,295.200 86.800 C 295.860 86.800,296.400 86.980,296.400 87.200 C 296.400 87.420,296.760 87.600,297.200 87.600 C 297.640 87.600,298.000 87.780,298.000 88.000 C 298.000 88.220,298.236 88.400,298.525 88.400 C 298.813 88.400,299.436 88.760,299.908 89.200 C 300.380 89.640,300.968 90.000,301.215 90.000 C 301.461 90.000,302.354 90.720,303.200 91.600 C 304.046 92.480,305.021 93.200,305.369 93.200 C 305.716 93.200,306.000 93.452,306.000 93.759 C 306.000 94.067,306.900 95.238,308.000 96.361 C 309.100 97.485,310.000 98.673,310.000 99.002 C 310.000 99.331,310.180 99.600,310.400 99.600 C 310.620 99.600,310.800 99.836,310.800 100.125 C 310.800 100.413,311.160 101.036,311.600 101.508 C 312.040 101.980,312.400 102.644,312.400 102.983 C 312.400 103.322,312.580 103.600,312.800 103.600 C 313.020 103.600,313.200 104.140,313.200 104.800 C 313.200 105.460,313.380 106.000,313.600 106.000 C 313.820 106.000,314.000 106.540,314.000 107.200 C 314.000 107.860,314.180 108.400,314.400 108.400 C 314.620 108.400,314.800 109.300,314.800 110.400 C 314.800 111.500,314.980 112.400,315.200 112.400 C 315.440 112.400,315.600 113.992,315.600 116.376 C 315.600 118.596,315.423 120.462,315.200 120.600 C 314.980 120.736,314.800 121.647,314.800 122.624 C 314.800 123.601,314.620 124.400,314.400 124.400 C 314.180 124.400,314.000 124.940,314.000 125.600 C 314.000 126.260,313.820 126.800,313.600 126.800 C 313.380 126.800,313.200 127.340,313.200 128.000 C 313.200 128.660,313.020 129.200,312.800 129.200 C 312.580 129.200,312.400 129.478,312.400 129.817 C 312.400 130.156,312.040 130.820,311.600 131.292 C 311.160 131.764,310.800 132.387,310.800 132.675 C 310.800 132.964,310.620 133.200,310.400 133.200 C 310.180 133.200,310.000 133.476,310.000 133.813 C 310.000 134.151,309.386 135.040,308.636 135.791 C 307.886 136.541,306.947 137.705,306.550 138.377 C 306.153 139.050,305.582 139.600,305.282 139.600 C 304.983 139.600,304.046 140.320,303.200 141.200 C 302.354 142.080,301.418 142.800,301.120 142.800 C 300.821 142.800,300.317 143.160,300.000 143.600 C 299.683 144.040,299.103 144.400,298.712 144.400 C 298.320 144.400,298.000 144.580,298.000 144.800 C 298.000 145.020,297.640 145.200,297.200 145.200 C 296.760 145.200,296.400 145.380,296.400 145.600 C 296.400 145.820,295.860 146.000,295.200 146.000 C 294.540 146.000,294.000 146.180,294.000 146.400 C 294.000 146.620,293.640 146.800,293.200 146.800 C 292.760 146.800,292.400 146.980,292.400 147.200 C 292.400 147.420,291.500 147.600,290.400 147.600 C 289.300 147.600,288.400 147.780,288.400 148.000 C 288.400 148.244,286.533 148.400,283.600 148.400 C 280.667 148.400,278.800 148.244,278.800 148.000 C 278.800 147.780,277.900 147.600,276.800 147.600 C 275.700 147.600,274.800 147.420,274.800 147.200 C 274.800 146.980,274.260 146.800,273.600 146.800 C 272.940 146.800,272.400 146.620,272.400 146.400 C 272.400 146.180,272.040 146.000,271.600 146.000 C 271.160 146.000,270.800 145.820,270.800 145.600 C 270.800 145.380,270.440 145.200,270.000 145.200 C 269.560 145.200,269.200 145.020,269.200 144.800 C 269.200 144.580,268.880 144.400,268.488 144.400 C 268.097 144.400,267.517 144.040,267.200 143.600 C 266.883 143.160,266.391 142.800,266.108 142.800 C 265.825 142.800,265.028 142.260,264.337 141.600 C 263.646 140.940,262.907 140.400,262.695 140.400 C 262.223 140.400,259.600 137.587,259.600 137.082 C 259.600 136.884,259.060 136.217,258.400 135.600 C 257.740 134.983,257.200 134.231,257.200 133.928 C 257.200 133.625,256.840 133.117,256.400 132.800 C 255.960 132.483,255.600 131.903,255.600 131.512 C 255.600 131.120,255.420 130.800,255.200 130.800 C 254.980 130.800,254.800 130.440,254.800 130.000 C 254.800 129.560,254.620 129.200,254.400 129.200 C 254.180 129.200,254.000 128.761,254.000 128.224 C 254.000 127.687,253.820 127.136,253.600 127.000 C 253.380 126.864,253.200 126.324,253.200 125.800 C 253.200 125.276,253.020 124.736,252.800 124.600 C 252.580 124.464,252.400 123.564,252.400 122.600 C 252.400 121.636,252.220 120.736,252.000 120.600 C 251.773 120.460,251.600 118.463,251.600 115.976 C 251.600 113.325,251.758 111.600,252.000 111.600 C 252.220 111.600,252.400 110.599,252.400 109.376 C 252.400 107.996,252.552 107.247,252.800 107.400 C 253.033 107.544,253.200 107.137,253.200 106.424 C 253.200 105.751,253.380 105.200,253.600 105.200 C 253.820 105.200,254.000 104.840,254.000 104.400 C 254.000 103.960,254.180 103.600,254.400 103.600 C 254.620 103.600,254.800 103.240,254.800 102.800 C 254.800 102.360,254.980 102.000,255.200 102.000 C 255.420 102.000,255.600 101.640,255.600 101.200 C 255.600 100.760,255.780 100.400,256.000 100.400 C 256.220 100.400,256.400 100.166,256.400 99.879 C 256.400 99.593,257.297 98.378,258.394 97.179 C 259.490 95.981,260.390 94.841,260.394 94.647 C 260.401 94.219,262.462 92.401,262.940 92.400 C 263.126 92.400,263.783 91.860,264.400 91.200 C 265.017 90.540,265.769 90.000,266.072 90.000 C 266.375 90.000,266.883 89.640,267.200 89.200 C 267.517 88.760,268.097 88.400,268.488 88.400 C 268.880 88.400,269.200 88.220,269.200 88.000 C 269.200 87.780,269.560 87.600,270.000 87.600 C 270.440 87.600,270.800 87.420,270.800 87.200 C 270.800 86.980,271.340 86.800,272.000 86.800 C 272.660 86.800,273.200 86.620,273.200 86.400 C 273.200 86.180,273.560 86.000,274.000 86.000 C 274.440 86.000,274.800 85.820,274.800 85.600 C 274.800 85.380,275.700 85.200,276.800 85.200 C 277.900 85.200,278.800 85.020,278.800 84.800 C 278.800 84.555,280.725 84.400,283.776 84.400 C 286.663 84.400,288.857 84.568,289.000 84.800 M48.400 280.000 C 48.400 280.220,48.146 280.400,47.835 280.400 C 47.524 280.400,46.173 281.480,44.832 282.800 C 43.492 284.120,42.227 285.200,42.021 285.200 C 41.480 285.200,30.800 295.881,30.800 296.423 C 30.800 296.674,30.260 297.383,29.600 298.000 C 28.940 298.617,28.400 299.369,28.400 299.672 C 28.400 299.975,28.040 300.483,27.600 300.800 C 27.160 301.117,26.800 301.573,26.800 301.813 C 26.800 302.053,26.485 302.598,26.100 303.025 C 25.715 303.451,25.145 304.295,24.832 304.900 C 24.520 305.505,24.115 306.000,23.932 306.000 C 23.750 306.000,23.600 306.320,23.600 306.712 C 23.600 307.103,23.240 307.683,22.800 308.000 C 22.360 308.317,22.000 308.897,22.000 309.288 C 22.000 309.680,21.820 310.000,21.600 310.000 C 21.380 310.000,21.200 310.416,21.200 310.925 C 21.200 311.433,20.840 312.236,20.400 312.708 C 19.960 313.180,19.600 313.844,19.600 314.183 C 19.600 314.522,19.420 314.800,19.200 314.800 C 18.980 314.800,18.800 315.160,18.800 315.600 C 18.800 316.040,18.620 316.400,18.400 316.400 C 18.180 316.400,18.000 316.760,18.000 317.200 C 18.000 317.640,17.820 318.000,17.600 318.000 C 17.380 318.000,17.200 318.360,17.200 318.800 C 17.200 319.240,17.020 319.600,16.800 319.600 C 16.580 319.600,16.400 320.140,16.400 320.800 C 16.400 321.460,16.220 322.000,16.000 322.000 C 15.780 322.000,15.600 322.360,15.600 322.800 C 15.600 323.240,15.420 323.600,15.200 323.600 C 14.980 323.600,14.800 324.140,14.800 324.800 C 14.800 325.460,14.620 326.000,14.400 326.000 C 14.180 326.000,14.000 326.360,14.000 326.800 C 14.000 327.240,13.820 327.600,13.600 327.600 C 13.380 327.600,13.200 328.140,13.200 328.800 C 13.200 329.460,13.020 330.000,12.800 330.000 C 12.580 330.000,12.400 330.540,12.400 331.200 C 12.400 331.860,12.220 332.400,12.000 332.400 C 11.780 332.400,11.600 332.940,11.600 333.600 C 11.600 334.260,11.420 334.800,11.200 334.800 C 10.980 334.800,10.800 335.520,10.800 336.400 C 10.800 337.280,10.620 338.000,10.400 338.000 C 10.180 338.000,10.000 338.720,10.000 339.600 C 10.000 340.480,9.820 341.200,9.600 341.200 C 9.380 341.200,9.200 341.920,9.200 342.800 C 9.200 343.680,9.020 344.400,8.800 344.400 C 8.580 344.400,8.400 345.120,8.400 346.000 C 8.400 346.880,8.220 347.600,8.000 347.600 C 7.780 347.600,7.600 348.601,7.600 349.824 C 7.600 351.047,7.450 351.955,7.268 351.842 C 7.085 351.729,6.895 352.663,6.845 353.918 C 6.796 355.173,6.585 356.260,6.378 356.333 C 6.170 356.407,6.000 357.532,6.000 358.833 C 6.000 360.135,5.843 361.200,5.651 361.200 C 5.459 361.200,5.272 362.775,5.235 364.700 C 5.198 366.625,4.995 368.260,4.784 368.333 C 4.564 368.410,4.400 370.838,4.400 374.033 C 4.400 377.478,4.248 379.600,4.000 379.600 C 3.749 379.600,3.600 382.133,3.600 386.400 C 3.600 390.667,3.749 393.200,4.000 393.200 C 4.220 393.200,4.400 393.740,4.400 394.400 L 4.400 395.600 17.200 395.600 C 25.467 395.600,30.000 395.458,30.000 395.200 C 30.000 394.963,31.467 394.800,33.600 394.800 C 35.733 394.800,37.200 394.637,37.200 394.400 C 37.200 394.171,38.400 394.000,40.000 394.000 C 41.600 394.000,42.800 393.829,42.800 393.600 C 42.800 393.378,43.867 393.200,45.200 393.200 C 46.533 393.200,47.600 393.022,47.600 392.800 C 47.600 392.580,48.500 392.400,49.600 392.400 C 50.700 392.400,51.600 392.220,51.600 392.000 C 51.600 391.780,52.500 391.600,53.600 391.600 C 54.700 391.600,55.600 391.420,55.600 391.200 C 55.600 390.980,56.320 390.800,57.200 390.800 C 58.080 390.800,58.800 390.620,58.800 390.400 C 58.800 390.180,59.340 390.000,60.000 390.000 C 60.660 390.000,61.200 389.820,61.200 389.600 C 61.200 389.380,61.920 389.200,62.800 389.200 C 63.680 389.200,64.400 389.020,64.400 388.800 C 64.400 388.580,64.940 388.400,65.600 388.400 C 66.260 388.400,66.800 388.220,66.800 388.000 C 66.800 387.780,67.340 387.600,68.000 387.600 C 68.660 387.600,69.200 387.420,69.200 387.200 C 69.200 386.980,69.740 386.800,70.400 386.800 C 71.060 386.800,71.600 386.620,71.600 386.400 C 71.600 386.180,72.140 386.000,72.800 386.000 C 73.460 386.000,74.000 385.820,74.000 385.600 C 74.000 385.380,74.540 385.200,75.200 385.200 C 75.860 385.200,76.400 385.020,76.400 384.800 C 76.400 384.580,76.760 384.400,77.200 384.400 C 77.640 384.400,78.000 384.220,78.000 384.000 C 78.000 383.780,78.439 383.600,78.976 383.600 C 79.513 383.600,80.064 383.420,80.200 383.200 C 80.336 382.980,80.797 382.800,81.224 382.800 C 81.651 382.800,82.000 382.620,82.000 382.400 C 82.000 382.180,82.360 382.000,82.800 382.000 C 83.240 382.000,83.600 381.820,83.600 381.600 C 83.600 381.380,83.960 381.200,84.400 381.200 C 84.840 381.200,85.200 381.020,85.200 380.800 C 85.200 380.580,85.560 380.400,86.000 380.400 C 86.440 380.400,86.800 380.220,86.800 380.000 C 86.800 379.780,87.160 379.600,87.600 379.600 C 88.040 379.600,88.400 379.420,88.400 379.200 C 88.400 378.980,88.760 378.800,89.200 378.800 C 89.640 378.800,90.000 378.620,90.000 378.400 C 90.000 378.180,90.236 378.000,90.525 378.000 C 90.813 378.000,91.436 377.640,91.908 377.200 C 92.380 376.760,93.004 376.400,93.295 376.400 C 93.586 376.400,94.083 376.040,94.400 375.600 C 94.717 375.160,95.257 374.800,95.600 374.800 C 95.943 374.800,96.483 374.440,96.800 374.000 C 97.117 373.560,97.609 373.200,97.892 373.200 C 98.175 373.200,98.972 372.660,99.663 372.000 C 100.354 371.340,101.090 370.800,101.299 370.800 C 101.508 370.800,102.183 370.260,102.800 369.600 C 103.417 368.940,104.126 368.400,104.377 368.400 C 104.919 368.400,115.600 357.720,115.600 357.178 C 115.600 356.972,116.500 355.885,117.600 354.761 C 118.700 353.638,119.600 352.467,119.600 352.159 C 119.600 351.852,119.780 351.600,120.000 351.600 C 120.220 351.600,120.400 351.240,120.400 350.800 C 120.400 350.342,120.133 350.000,119.776 350.000 C 119.407 350.000,119.269 349.812,119.438 349.538 C 119.607 349.264,119.549 349.185,119.294 349.342 C 119.058 349.488,118.593 349.336,118.261 349.004 C 117.929 348.672,117.414 348.400,117.117 348.400 C 116.820 348.400,116.317 348.040,116.000 347.600 C 115.683 347.160,115.103 346.800,114.712 346.800 C 114.320 346.800,114.000 346.620,114.000 346.400 C 114.000 346.180,113.640 346.000,113.200 346.000 C 112.760 346.000,112.400 345.820,112.400 345.600 C 112.400 344.710,110.284 345.239,109.200 346.400 C 108.583 347.060,107.873 347.600,107.621 347.600 C 107.370 347.600,106.710 348.053,106.156 348.608 C 105.602 349.162,104.952 349.494,104.712 349.346 C 104.451 349.185,104.391 349.262,104.562 349.538 C 104.731 349.812,104.593 350.000,104.224 350.000 C 103.881 350.000,103.600 350.180,103.600 350.400 C 103.600 350.620,103.240 350.800,102.800 350.800 C 102.360 350.800,102.000 350.980,102.000 351.200 C 102.000 351.420,101.640 351.600,101.200 351.600 C 100.760 351.600,100.400 351.780,100.400 352.000 C 100.400 352.220,100.040 352.400,99.600 352.400 C 99.160 352.400,98.800 352.580,98.800 352.800 C 98.800 353.020,98.564 353.200,98.275 353.200 C 97.987 353.200,97.364 353.560,96.892 354.000 C 96.420 354.440,95.756 354.800,95.417 354.800 C 95.078 354.800,94.800 354.980,94.800 355.200 C 94.800 355.420,94.440 355.600,94.000 355.600 C 93.560 355.600,93.200 355.780,93.200 356.000 C 93.200 356.220,92.660 356.400,92.000 356.400 C 91.340 356.400,90.800 356.580,90.800 356.800 C 90.800 357.020,90.440 357.200,90.000 357.200 C 89.560 357.200,89.200 357.380,89.200 357.600 C 89.200 357.820,88.660 358.000,88.000 358.000 C 87.340 358.000,86.800 358.180,86.800 358.400 C 86.800 358.620,86.260 358.800,85.600 358.800 C 84.940 358.800,84.400 358.980,84.400 359.200 C 84.400 359.420,83.961 359.600,83.424 359.600 C 82.887 359.600,82.336 359.780,82.200 360.000 C 82.064 360.220,81.423 360.400,80.776 360.400 C 80.129 360.400,79.600 360.580,79.600 360.800 C 79.600 361.020,79.060 361.200,78.400 361.200 C 77.740 361.200,77.200 361.380,77.200 361.600 C 77.200 361.820,76.480 362.000,75.600 362.000 C 74.720 362.000,74.000 362.180,74.000 362.400 C 74.000 362.620,73.280 362.800,72.400 362.800 C 71.520 362.800,70.800 362.980,70.800 363.200 C 70.800 363.420,69.911 363.600,68.824 363.600 C 67.737 363.600,66.736 363.780,66.600 364.000 C 66.464 364.220,65.373 364.400,64.176 364.400 C 62.979 364.400,62.000 364.580,62.000 364.800 C 62.000 365.029,60.800 365.200,59.200 365.200 C 57.600 365.200,56.400 365.371,56.400 365.600 C 56.400 365.842,54.667 366.000,52.000 366.000 C 49.333 366.000,47.600 366.158,47.600 366.400 C 47.600 366.652,44.933 366.800,40.400 366.800 L 33.200 366.800 33.200 360.000 C 33.200 355.733,33.349 353.200,33.600 353.200 C 33.842 353.200,34.000 351.467,34.000 348.800 C 34.000 346.133,34.158 344.400,34.400 344.400 C 34.631 344.400,34.800 343.141,34.800 341.424 C 34.800 339.787,34.980 338.336,35.200 338.200 C 35.420 338.064,35.600 337.074,35.600 336.000 C 35.600 334.926,35.780 333.936,36.000 333.800 C 36.220 333.664,36.400 332.753,36.400 331.776 C 36.400 330.799,36.580 330.000,36.800 330.000 C 37.020 330.000,37.200 329.291,37.200 328.424 C 37.200 327.557,37.380 326.736,37.600 326.600 C 37.820 326.464,38.000 325.733,38.000 324.976 C 38.000 324.219,38.180 323.600,38.400 323.600 C 38.620 323.600,38.800 322.880,38.800 322.000 C 38.800 321.120,38.980 320.400,39.200 320.400 C 39.420 320.400,39.600 319.860,39.600 319.200 C 39.600 318.540,39.780 318.000,40.000 318.000 C 40.220 318.000,40.400 317.460,40.400 316.800 C 40.400 316.140,40.580 315.600,40.800 315.600 C 41.020 315.600,41.200 315.060,41.200 314.400 C 41.200 313.740,41.380 313.200,41.600 313.200 C 41.820 313.200,42.000 312.851,42.000 312.424 C 42.000 311.997,42.180 311.536,42.400 311.400 C 42.620 311.264,42.800 310.713,42.800 310.176 C 42.800 309.639,42.980 309.200,43.200 309.200 C 43.420 309.200,43.600 308.840,43.600 308.400 C 43.600 307.960,43.780 307.600,44.000 307.600 C 44.220 307.600,44.400 307.366,44.400 307.080 C 44.400 306.344,45.341 304.407,45.700 304.403 C 45.865 304.401,46.000 304.040,46.000 303.600 C 46.000 303.160,46.180 302.800,46.400 302.800 C 46.620 302.800,46.800 302.440,46.800 302.000 C 46.800 301.560,46.980 301.200,47.200 301.200 C 47.420 301.200,47.600 300.840,47.600 300.400 C 47.600 299.960,47.780 299.600,48.000 299.600 C 48.220 299.600,48.400 299.322,48.400 298.983 C 48.400 298.644,48.760 297.980,49.200 297.508 C 49.640 297.036,50.000 296.413,50.000 296.125 C 50.000 295.836,50.180 295.600,50.400 295.600 C 50.620 295.600,50.800 295.357,50.800 295.059 C 50.800 294.762,51.340 293.954,52.000 293.263 C 52.660 292.572,53.200 291.775,53.200 291.492 C 53.200 291.209,53.560 290.717,54.000 290.400 C 54.824 289.806,55.139 287.600,54.400 287.600 C 54.180 287.600,54.000 287.240,54.000 286.800 C 54.000 286.360,53.820 286.000,53.600 286.000 C 53.380 286.000,53.200 285.722,53.200 285.383 C 53.200 285.044,52.840 284.380,52.400 283.908 C 51.960 283.436,51.600 282.813,51.600 282.525 C 51.600 282.236,51.420 282.000,51.200 282.000 C 50.980 282.000,50.800 281.717,50.800 281.371 C 50.800 281.026,50.543 280.486,50.229 280.171 C 49.573 279.516,48.400 279.406,48.400 280.000 " stroke="none" fill="#9c64f4" fill-rule="evenodd"></path><path id="path1" d="" stroke="none" fill="#a064f4" fill-rule="evenodd"></path><path id="path2" d="" stroke="none" fill="#a064f4" fill-rule="evenodd"></path><path id="path3" d="" stroke="none" fill="#a064f4" fill-rule="evenodd"></path><path id="path4" d="" stroke="none" fill="#a064f4" fill-rule="evenodd"></path></g></svg>