<svg width="66" height="66" viewBox="0 0 66 66" fill="none" xmlns="http://www.w3.org/2000/svg">
<path fill-rule="evenodd" clip-rule="evenodd" d="M1 33C1 15.328 15.328 1 33 1C50.672 1 65 15.328 65 33C65 38.115 63.2275 43.6499 61.0931 47.9382C62.0244 52.5372 62.9557 57.1361 63.8869 61.7351C64.0932 62.754 63.4345 63.7472 62.4156 63.9535C62.1581 64.0057 61.8926 64.0033 61.6361 63.9467C57.1784 62.9623 52.7207 61.9778 48.263 60.9934C43.9781 63.1235 38.1095 65 33 65C15.328 65 1 50.672 1 33Z" stroke="#9863F4" stroke-width="2" stroke-linecap="round" stroke-linejoin="round"/>
<path d="M33.9409 49C34.9805 49 35.8233 48.1572 35.8233 47.1176C35.8233 46.078 34.9805 45.2353 33.9409 45.2353C32.9014 45.2353 32.0586 46.078 32.0586 47.1176C32.0586 48.1572 32.9014 49 33.9409 49Z" stroke="#9863F4"/>
<path d="M33.9409 49C34.9805 49 35.8233 48.1572 35.8233 47.1176C35.8233 46.078 34.9805 45.2353 33.9409 45.2353C32.9014 45.2353 32.0586 46.078 32.0586 47.1176C32.0586 48.1572 32.9014 49 33.9409 49Z" stroke="#9863F4"/>
<path d="M33.894 39.4434C33.8583 38.2698 34.0702 37.2929 34.5295 36.5127C35.2185 35.3424 35.8531 34.7749 37.0772 33.7094C38.4148 32.5428 42.7537 30.0411 42.917 26.3079C43.0991 22.1196 40.1869 18.4877 35.2695 17.9919C30.6096 17.5311 24.7146 20.2117 24.5293 25.8664" stroke="#9863F4" stroke-width="2" stroke-linecap="round" stroke-linejoin="round"/>
</svg>
