<svg width="60" height="66" viewBox="0 0 60 66" fill="none" xmlns="http://www.w3.org/2000/svg">
<path d="M13.147 40.4257C11.2734 37.4275 10.2369 33.9823 10.1453 30.448C10.0537 26.9137 10.9104 23.4194 12.6262 20.3282C14.3421 17.237 16.8545 14.6618 19.9023 12.8701C22.9502 11.0785 26.4223 10.1358 29.9578 10.1401C33.4932 10.1444 36.963 11.0954 40.0065 12.8945C43.0501 14.6935 45.5562 17.2748 47.2646 20.3701C48.9729 23.4655 49.8211 26.9618 49.721 30.4959C49.6209 34.0299 48.576 37.4727 46.6952 40.4663" stroke="#9863F4" stroke-width="2" stroke-linecap="round" stroke-linejoin="round"/>
<path d="M8.62509 49.503C-1.95871 37.9812 -1.46535 20.1351 9.73564 9.21428C20.9366 -1.70451 38.7888 -1.74308 50.0385 9.12901C61.2862 20.0011 61.8547 37.8451 51.3217 49.4116" stroke="#9863F4" stroke-width="2" stroke-linecap="round" stroke-linejoin="round"/>
<path fill-rule="evenodd" clip-rule="evenodd" d="M25.3562 28.3984C25.3562 27.5907 25.677 26.8161 26.2481 26.2449C26.8193 25.6738 27.5939 25.353 28.4016 25.353C29.2092 25.353 29.9839 25.6738 30.555 26.2449C31.1261 26.8161 31.447 27.5907 31.447 28.3984V42.8762L43.3849 46.4393C44.3444 46.7152 45.1614 47.3487 45.6676 48.2092C46.1738 49.0697 46.3305 50.0917 46.1055 51.0643C45.7076 52.7819 43.8357 63.2459 43.5189 65.0001H24.8811L15.5581 51.0379C11.8589 45.3795 21.1494 43.4244 25.3562 52.8306V28.3984Z" stroke="#9863F4" stroke-width="2" stroke-linecap="round" stroke-linejoin="round"/>
</svg>
