<svg width="66" height="66" viewBox="0 0 66 66" fill="none" xmlns="http://www.w3.org/2000/svg">
<path d="M11.9155 37.6437L33.0511 16.51C34.4663 15.2132 36.139 14.2293 37.96 13.6226C39.7811 13.0159 41.7097 12.8 43.6198 12.989L53.0136 22.3828C53.201 24.2927 52.9842 26.2207 52.3772 28.0413C51.7702 29.8619 50.7867 31.5343 49.4907 32.9496L28.3551 54.0833" stroke="#9863F4" stroke-width="2" stroke-linecap="round" stroke-linejoin="round"/>
<path d="M43.6196 12.9872L50.6636 5.94134C53.2465 3.35837 63.5803 0.0704478 64.7552 1.24538C65.9283 2.41843 62.6403 12.7503 60.0574 15.3351L53.0134 22.381" stroke="#9863F4" stroke-width="2" stroke-linecap="round" stroke-linejoin="round"/>
<path fill-rule="evenodd" clip-rule="evenodd" d="M36.5738 36.4707C38.5176 34.5269 38.9236 29.4249 37.7487 28.2519C36.5738 27.0769 31.4736 27.4811 29.528 29.4249L13.3233 45.6296C12.9497 46.0033 12.7397 46.5101 12.7397 47.0385C12.7397 47.567 12.9497 48.0738 13.3233 48.4475L17.5531 52.6735C17.9267 53.0466 18.4331 53.2561 18.9611 53.2561C19.4891 53.2561 19.9955 53.0466 20.3691 52.6735L36.5738 36.4689V36.4707Z" stroke="#9863F4" stroke-width="2" stroke-linecap="round" stroke-linejoin="round"/>
<path d="M23.6572 25.902C21.3092 23.554 13.457 22.0144 9.56746 25.902L1.58358 33.8878C1.20992 34.2615 1 34.7683 1 35.2968C1 35.8252 1.20992 36.332 1.58358 36.7057L5.80957 40.9317C5.99464 41.117 6.21442 41.264 6.45634 41.3643C6.69827 41.4646 6.95759 41.5162 7.21948 41.5162C7.48138 41.5162 7.7407 41.4646 7.98262 41.3643C8.22455 41.264 8.44433 41.117 8.6294 40.9317L11.9154 37.6438" stroke="#9863F4" stroke-width="2" stroke-linecap="round" stroke-linejoin="round"/>
<path d="M40.0966 42.3397C42.4446 44.6896 43.9861 52.5438 40.0966 56.4314L32.1109 64.4171C31.7372 64.7908 31.2304 65.0007 30.7019 65.0007C30.1734 65.0007 29.6666 64.7908 29.2929 64.4171L25.0669 60.1893C24.8816 60.0042 24.7346 59.7844 24.6343 59.5425C24.534 59.3006 24.4824 59.0412 24.4824 58.7793C24.4824 58.5175 24.534 58.2581 24.6343 58.0162C24.7346 57.7743 24.8816 57.5545 25.0669 57.3694L28.3549 54.0834" stroke="#9863F4" stroke-width="2" stroke-linecap="round" stroke-linejoin="round"/>
</svg>
